<svg width="204" height="51" viewBox="0 0 204 51" fill="none" xmlns="http://www.w3.org/2000/svg">
<rect width="204" height="51" rx="25.5" fill="#FFFDD6"/>
<path d="M56.11 14.575L52.195 25H50.215L46.285 14.575H48.115L51.205 23.245L54.31 14.575H56.11ZM65.115 20.665C65.115 20.975 65.095 21.255 65.055 21.505H58.74C58.79 22.165 59.035 22.695 59.475 23.095C59.915 23.495 60.455 23.695 61.095 23.695C62.015 23.695 62.665 23.31 63.045 22.54H64.89C64.64 23.3 64.185 23.925 63.525 24.415C62.875 24.895 62.065 25.135 61.095 25.135C60.305 25.135 59.595 24.96 58.965 24.61C58.345 24.25 57.855 23.75 57.495 23.11C57.145 22.46 56.97 21.71 56.97 20.86C56.97 20.01 57.14 19.265 57.48 18.625C57.83 17.975 58.315 17.475 58.935 17.125C59.565 16.775 60.285 16.6 61.095 16.6C61.875 16.6 62.57 16.77 63.18 17.11C63.79 17.45 64.265 17.93 64.605 18.55C64.945 19.16 65.115 19.865 65.115 20.665ZM63.33 20.125C63.32 19.495 63.095 18.99 62.655 18.61C62.215 18.23 61.67 18.04 61.02 18.04C60.43 18.04 59.925 18.23 59.505 18.61C59.085 18.98 58.835 19.485 58.755 20.125H63.33ZM68.5079 17.935C68.7579 17.515 69.0879 17.19 69.4979 16.96C69.9179 16.72 70.4129 16.6 70.9829 16.6V18.37H70.5479C69.8779 18.37 69.3679 18.54 69.0179 18.88C68.6779 19.22 68.5079 19.81 68.5079 20.65V25H66.7979V16.735H68.5079V17.935ZM73.4247 15.64C73.1147 15.64 72.8547 15.535 72.6447 15.325C72.4347 15.115 72.3297 14.855 72.3297 14.545C72.3297 14.235 72.4347 13.975 72.6447 13.765C72.8547 13.555 73.1147 13.45 73.4247 13.45C73.7247 13.45 73.9797 13.555 74.1897 13.765C74.3997 13.975 74.5047 14.235 74.5047 14.545C74.5047 14.855 74.3997 15.115 74.1897 15.325C73.9797 15.535 73.7247 15.64 73.4247 15.64ZM74.2647 16.735V25H72.5547V16.735H74.2647ZM79.9748 18.13H78.4448V25H76.7198V18.13H75.7448V16.735H76.7198V16.15C76.7198 15.2 76.9698 14.51 77.4698 14.08C77.9798 13.64 78.7748 13.42 79.8548 13.42V14.845C79.3348 14.845 78.9698 14.945 78.7598 15.145C78.5498 15.335 78.4448 15.67 78.4448 16.15V16.735H79.9748V18.13ZM82.3602 15.64C82.0502 15.64 81.7902 15.535 81.5802 15.325C81.3702 15.115 81.2652 14.855 81.2652 14.545C81.2652 14.235 81.3702 13.975 81.5802 13.765C81.7902 13.555 82.0502 13.45 82.3602 13.45C82.6602 13.45 82.9152 13.555 83.1252 13.765C83.3352 13.975 83.4402 14.235 83.4402 14.545C83.4402 14.855 83.3352 15.115 83.1252 15.325C82.9152 15.535 82.6602 15.64 82.3602 15.64ZM83.2002 16.735V25H81.4902V16.735H83.2002ZM93.0203 20.665C93.0203 20.975 93.0003 21.255 92.9603 21.505H86.6453C86.6953 22.165 86.9403 22.695 87.3803 23.095C87.8203 23.495 88.3603 23.695 89.0003 23.695C89.9203 23.695 90.5703 23.31 90.9503 22.54H92.7953C92.5453 23.3 92.0903 23.925 91.4303 24.415C90.7803 24.895 89.9703 25.135 89.0003 25.135C88.2103 25.135 87.5003 24.96 86.8703 24.61C86.2503 24.25 85.7603 23.75 85.4003 23.11C85.0503 22.46 84.8753 21.71 84.8753 20.86C84.8753 20.01 85.0453 19.265 85.3853 18.625C85.7353 17.975 86.2203 17.475 86.8403 17.125C87.4703 16.775 88.1903 16.6 89.0003 16.6C89.7803 16.6 90.4753 16.77 91.0853 17.11C91.6953 17.45 92.1703 17.93 92.5103 18.55C92.8503 19.16 93.0203 19.865 93.0203 20.665ZM91.2353 20.125C91.2253 19.495 91.0003 18.99 90.5603 18.61C90.1203 18.23 89.5753 18.04 88.9253 18.04C88.3353 18.04 87.8303 18.23 87.4103 18.61C86.9903 18.98 86.7403 19.485 86.6603 20.125H91.2353ZM94.1331 20.83C94.1331 20 94.3031 19.265 94.6431 18.625C94.9931 17.985 95.4631 17.49 96.0531 17.14C96.6531 16.78 97.3181 16.6 98.0481 16.6C98.5881 16.6 99.1181 16.72 99.6381 16.96C100.168 17.19 100.588 17.5 100.898 17.89V13.9H102.623V25H100.898V23.755C100.618 24.155 100.228 24.485 99.7281 24.745C99.2381 25.005 98.6731 25.135 98.0331 25.135C97.3131 25.135 96.6531 24.955 96.0531 24.595C95.4631 24.225 94.9931 23.715 94.6431 23.065C94.3031 22.405 94.1331 21.66 94.1331 20.83ZM100.898 20.86C100.898 20.29 100.778 19.795 100.538 19.375C100.308 18.955 100.003 18.635 99.6231 18.415C99.2431 18.195 98.8331 18.085 98.3931 18.085C97.9531 18.085 97.5431 18.195 97.1631 18.415C96.7831 18.625 96.4731 18.94 96.2331 19.36C96.0031 19.77 95.8881 20.26 95.8881 20.83C95.8881 21.4 96.0031 21.9 96.2331 22.33C96.4731 22.76 96.7831 23.09 97.1631 23.32C97.5531 23.54 97.9631 23.65 98.3931 23.65C98.8331 23.65 99.2431 23.54 99.6231 23.32C100.003 23.1 100.308 22.78 100.538 22.36C100.778 21.93 100.898 21.43 100.898 20.86ZM110.476 17.965C110.766 17.565 111.161 17.24 111.661 16.99C112.171 16.73 112.736 16.6 113.356 16.6C114.086 16.6 114.746 16.775 115.336 17.125C115.926 17.475 116.391 17.975 116.731 18.625C117.071 19.265 117.241 20 117.241 20.83C117.241 21.66 117.071 22.405 116.731 23.065C116.391 23.715 115.921 24.225 115.321 24.595C114.731 24.955 114.076 25.135 113.356 25.135C112.716 25.135 112.146 25.01 111.646 24.76C111.156 24.51 110.766 24.19 110.476 23.8V25H108.766V13.9H110.476V17.965ZM115.501 20.83C115.501 20.26 115.381 19.77 115.141 19.36C114.911 18.94 114.601 18.625 114.211 18.415C113.831 18.195 113.421 18.085 112.981 18.085C112.551 18.085 112.141 18.195 111.751 18.415C111.371 18.635 111.061 18.955 110.821 19.375C110.591 19.795 110.476 20.29 110.476 20.86C110.476 21.43 110.591 21.93 110.821 22.36C111.061 22.78 111.371 23.1 111.751 23.32C112.141 23.54 112.551 23.65 112.981 23.65C113.421 23.65 113.831 23.54 114.211 23.32C114.601 23.09 114.911 22.76 115.141 22.33C115.381 21.9 115.501 21.4 115.501 20.83ZM126.372 16.735L121.302 28.885H119.532L121.212 24.865L117.957 16.735H119.862L122.187 23.035L124.602 16.735H126.372ZM137.844 22.87H133.479L132.729 25H130.944L134.679 14.56H136.659L140.394 25H138.594L137.844 22.87ZM137.364 21.475L135.669 16.63L133.959 21.475H137.364ZM143.728 14.575V25H142.018V14.575H143.728Z" fill="black"/>
<path d="M35.25 39H34.34L30.68 33.45V39H29.77V32.02H30.68L34.34 37.56V32.02H35.25V39ZM39.1913 39.09C38.6779 39.09 38.2113 38.9733 37.7913 38.74C37.3779 38.5067 37.0513 38.1767 36.8113 37.75C36.5779 37.3167 36.4613 36.8167 36.4613 36.25C36.4613 35.69 36.5813 35.1967 36.8213 34.77C37.0679 34.3367 37.4013 34.0067 37.8213 33.78C38.2413 33.5467 38.7113 33.43 39.2313 33.43C39.7513 33.43 40.2213 33.5467 40.6413 33.78C41.0613 34.0067 41.3913 34.3333 41.6313 34.76C41.8779 35.1867 42.0013 35.6833 42.0013 36.25C42.0013 36.8167 41.8746 37.3167 41.6213 37.75C41.3746 38.1767 41.0379 38.5067 40.6113 38.74C40.1846 38.9733 39.7113 39.09 39.1913 39.09ZM39.1913 38.29C39.5179 38.29 39.8246 38.2133 40.1113 38.06C40.3979 37.9067 40.6279 37.6767 40.8013 37.37C40.9813 37.0633 41.0713 36.69 41.0713 36.25C41.0713 35.81 40.9846 35.4367 40.8113 35.13C40.6379 34.8233 40.4113 34.5967 40.1313 34.45C39.8513 34.2967 39.5479 34.22 39.2213 34.22C38.8879 34.22 38.5813 34.2967 38.3013 34.45C38.0279 34.5967 37.8079 34.8233 37.6413 35.13C37.4746 35.4367 37.3913 35.81 37.3913 36.25C37.3913 36.6967 37.4713 37.0733 37.6313 37.38C37.7979 37.6867 38.0179 37.9167 38.2913 38.07C38.5646 38.2167 38.8646 38.29 39.1913 38.29ZM45.8677 33.42C46.5344 33.42 47.0744 33.6233 47.4877 34.03C47.9011 34.43 48.1077 35.01 48.1077 35.77V39H47.2077V35.9C47.2077 35.3533 47.0711 34.9367 46.7977 34.65C46.5244 34.3567 46.1511 34.21 45.6777 34.21C45.1977 34.21 44.8144 34.36 44.5277 34.66C44.2477 34.96 44.1077 35.3967 44.1077 35.97V39H43.1977V33.52H44.1077V34.3C44.2877 34.02 44.5311 33.8033 44.8377 33.65C45.1511 33.4967 45.4944 33.42 45.8677 33.42ZM53.3942 34.95V35.72H49.4042V34.95H53.3942ZM58.772 39L57.112 36.15H56.012V39H55.102V32.03H57.352C57.8787 32.03 58.322 32.12 58.682 32.3C59.0487 32.48 59.322 32.7233 59.502 33.03C59.682 33.3367 59.772 33.6867 59.772 34.08C59.772 34.56 59.632 34.9833 59.352 35.35C59.0787 35.7167 58.6654 35.96 58.112 36.08L59.862 39H58.772ZM56.012 35.42H57.352C57.8454 35.42 58.2154 35.3 58.462 35.06C58.7087 34.8133 58.832 34.4867 58.832 34.08C58.832 33.6667 58.7087 33.3467 58.462 33.12C58.222 32.8933 57.852 32.78 57.352 32.78H56.012V35.42ZM66.186 36.05C66.186 36.2233 66.176 36.4067 66.156 36.6H61.776C61.8093 37.14 61.9927 37.5633 62.326 37.87C62.666 38.17 63.076 38.32 63.556 38.32C63.9493 38.32 64.276 38.23 64.536 38.05C64.8027 37.8633 64.9893 37.6167 65.096 37.31H66.076C65.9293 37.8367 65.636 38.2667 65.196 38.6C64.756 38.9267 64.2093 39.09 63.556 39.09C63.036 39.09 62.5693 38.9733 62.156 38.74C61.7493 38.5067 61.4293 38.1767 61.196 37.75C60.9627 37.3167 60.846 36.8167 60.846 36.25C60.846 35.6833 60.9593 35.1867 61.186 34.76C61.4127 34.3333 61.7293 34.0067 62.136 33.78C62.5493 33.5467 63.0227 33.43 63.556 33.43C64.076 33.43 64.536 33.5433 64.936 33.77C65.336 33.9967 65.6427 34.31 65.856 34.71C66.076 35.1033 66.186 35.55 66.186 36.05ZM65.246 35.86C65.246 35.5133 65.1693 35.2167 65.016 34.97C64.8627 34.7167 64.6527 34.5267 64.386 34.4C64.126 34.2667 63.836 34.2 63.516 34.2C63.056 34.2 62.6627 34.3467 62.336 34.64C62.016 34.9333 61.8327 35.34 61.786 35.86H65.246ZM69.3272 39.09C68.9072 39.09 68.5305 39.02 68.1972 38.88C67.8639 38.7333 67.6005 38.5333 67.4072 38.28C67.2139 38.02 67.1072 37.7233 67.0872 37.39H68.0272C68.0539 37.6633 68.1805 37.8867 68.4072 38.06C68.6405 38.2333 68.9439 38.32 69.3172 38.32C69.6639 38.32 69.9372 38.2433 70.1372 38.09C70.3372 37.9367 70.4372 37.7433 70.4372 37.51C70.4372 37.27 70.3305 37.0933 70.1172 36.98C69.9039 36.86 69.5739 36.7433 69.1272 36.63C68.7205 36.5233 68.3872 36.4167 68.1272 36.31C67.8739 36.1967 67.6539 36.0333 67.4672 35.82C67.2872 35.6 67.1972 35.3133 67.1972 34.96C67.1972 34.68 67.2805 34.4233 67.4472 34.19C67.6139 33.9567 67.8505 33.7733 68.1572 33.64C68.4639 33.5 68.8139 33.43 69.2072 33.43C69.8139 33.43 70.3039 33.5833 70.6772 33.89C71.0505 34.1967 71.2505 34.6167 71.2772 35.15H70.3672C70.3472 34.8633 70.2305 34.6333 70.0172 34.46C69.8105 34.2867 69.5305 34.2 69.1772 34.2C68.8505 34.2 68.5905 34.27 68.3972 34.41C68.2039 34.55 68.1072 34.7333 68.1072 34.96C68.1072 35.14 68.1639 35.29 68.2772 35.41C68.3972 35.5233 68.5439 35.6167 68.7172 35.69C68.8972 35.7567 69.1439 35.8333 69.4572 35.92C69.8505 36.0267 70.1705 36.1333 70.4172 36.24C70.6639 36.34 70.8739 36.4933 71.0472 36.7C71.2272 36.9067 71.3205 37.1767 71.3272 37.51C71.3272 37.81 71.2439 38.08 71.0772 38.32C70.9105 38.56 70.6739 38.75 70.3672 38.89C70.0672 39.0233 69.7205 39.09 69.3272 39.09ZM77.6118 36.05C77.6118 36.2233 77.6018 36.4067 77.5818 36.6H73.2018C73.2351 37.14 73.4185 37.5633 73.7518 37.87C74.0918 38.17 74.5018 38.32 74.9818 38.32C75.3751 38.32 75.7018 38.23 75.9618 38.05C76.2285 37.8633 76.4151 37.6167 76.5218 37.31H77.5018C77.3551 37.8367 77.0618 38.2667 76.6218 38.6C76.1818 38.9267 75.6351 39.09 74.9818 39.09C74.4618 39.09 73.9951 38.9733 73.5818 38.74C73.1751 38.5067 72.8551 38.1767 72.6218 37.75C72.3885 37.3167 72.2718 36.8167 72.2718 36.25C72.2718 35.6833 72.3851 35.1867 72.6118 34.76C72.8385 34.3333 73.1551 34.0067 73.5618 33.78C73.9751 33.5467 74.4485 33.43 74.9818 33.43C75.5018 33.43 75.9618 33.5433 76.3618 33.77C76.7618 33.9967 77.0685 34.31 77.2818 34.71C77.5018 35.1033 77.6118 35.55 77.6118 36.05ZM76.6718 35.86C76.6718 35.5133 76.5951 35.2167 76.4418 34.97C76.2885 34.7167 76.0785 34.5267 75.8118 34.4C75.5518 34.2667 75.2618 34.2 74.9418 34.2C74.4818 34.2 74.0885 34.3467 73.7618 34.64C73.4418 34.9333 73.2585 35.34 73.2118 35.86H76.6718ZM78.473 36.24C78.473 35.68 78.5863 35.19 78.813 34.77C79.0396 34.3433 79.3496 34.0133 79.743 33.78C80.143 33.5467 80.5863 33.43 81.073 33.43C81.553 33.43 81.9696 33.5333 82.323 33.74C82.6763 33.9467 82.9396 34.2067 83.113 34.52V33.52H84.033V39H83.113V37.98C82.933 38.3 82.663 38.5667 82.303 38.78C81.9496 38.9867 81.5363 39.09 81.063 39.09C80.5763 39.09 80.1363 38.97 79.743 38.73C79.3496 38.49 79.0396 38.1533 78.813 37.72C78.5863 37.2867 78.473 36.7933 78.473 36.24ZM83.113 36.25C83.113 35.8367 83.0296 35.4767 82.863 35.17C82.6963 34.8633 82.4696 34.63 82.183 34.47C81.903 34.3033 81.593 34.22 81.253 34.22C80.913 34.22 80.603 34.3 80.323 34.46C80.043 34.62 79.8196 34.8533 79.653 35.16C79.4863 35.4667 79.403 35.8267 79.403 36.24C79.403 36.66 79.4863 37.0267 79.653 37.34C79.8196 37.6467 80.043 37.8833 80.323 38.05C80.603 38.21 80.913 38.29 81.253 38.29C81.593 38.29 81.903 38.21 82.183 38.05C82.4696 37.8833 82.6963 37.6467 82.863 37.34C83.0296 37.0267 83.113 36.6633 83.113 36.25ZM86.4808 34.41C86.6408 34.0967 86.8674 33.8533 87.1608 33.68C87.4608 33.5067 87.8241 33.42 88.2508 33.42V34.36H88.0108C86.9908 34.36 86.4808 34.9133 86.4808 36.02V39H85.5708V33.52H86.4808V34.41ZM88.9613 36.25C88.9613 35.6833 89.0746 35.19 89.3013 34.77C89.5279 34.3433 89.8413 34.0133 90.2413 33.78C90.6479 33.5467 91.1113 33.43 91.6313 33.43C92.3046 33.43 92.8579 33.5933 93.2913 33.92C93.7313 34.2467 94.0213 34.7 94.1613 35.28H93.1813C93.0879 34.9467 92.9046 34.6833 92.6313 34.49C92.3646 34.2967 92.0313 34.2 91.6313 34.2C91.1113 34.2 90.6913 34.38 90.3713 34.74C90.0513 35.0933 89.8913 35.5967 89.8913 36.25C89.8913 36.91 90.0513 37.42 90.3713 37.78C90.6913 38.14 91.1113 38.32 91.6313 38.32C92.0313 38.32 92.3646 38.2267 92.6313 38.04C92.8979 37.8533 93.0813 37.5867 93.1813 37.24H94.1613C94.0146 37.8 93.7213 38.25 93.2813 38.59C92.8413 38.9233 92.2913 39.09 91.6313 39.09C91.1113 39.09 90.6479 38.9733 90.2413 38.74C89.8413 38.5067 89.5279 38.1767 89.3013 37.75C89.0746 37.3233 88.9613 36.8233 88.9613 36.25ZM98.0955 33.42C98.5088 33.42 98.8821 33.51 99.2155 33.69C99.5488 33.8633 99.8088 34.1267 99.9955 34.48C100.189 34.8333 100.285 35.2633 100.285 35.77V39H99.3855V35.9C99.3855 35.3533 99.2488 34.9367 98.9755 34.65C98.7021 34.3567 98.3288 34.21 97.8555 34.21C97.3755 34.21 96.9921 34.36 96.7055 34.66C96.4255 34.96 96.2855 35.3967 96.2855 35.97V39H95.3755V31.6H96.2855V34.3C96.4655 34.02 96.7121 33.8033 97.0255 33.65C97.3455 33.4967 97.7021 33.42 98.0955 33.42ZM107.928 35.41C108.181 35.45 108.411 35.5533 108.618 35.72C108.831 35.8867 108.998 36.0933 109.118 36.34C109.245 36.5867 109.308 36.85 109.308 37.13C109.308 37.4833 109.218 37.8033 109.038 38.09C108.858 38.37 108.595 38.5933 108.248 38.76C107.908 38.92 107.505 39 107.038 39H104.438V32.03H106.938C107.411 32.03 107.815 32.11 108.148 32.27C108.481 32.4233 108.731 32.6333 108.898 32.9C109.065 33.1667 109.148 33.4667 109.148 33.8C109.148 34.2133 109.035 34.5567 108.808 34.83C108.588 35.0967 108.295 35.29 107.928 35.41ZM105.348 35.04H106.878C107.305 35.04 107.635 34.94 107.868 34.74C108.101 34.54 108.218 34.2633 108.218 33.91C108.218 33.5567 108.101 33.28 107.868 33.08C107.635 32.88 107.298 32.78 106.858 32.78H105.348V35.04ZM106.958 38.25C107.411 38.25 107.765 38.1433 108.018 37.93C108.271 37.7167 108.398 37.42 108.398 37.04C108.398 36.6533 108.265 36.35 107.998 36.13C107.731 35.9033 107.375 35.79 106.928 35.79H105.348V38.25H106.958ZM110.231 36.24C110.231 35.68 110.344 35.19 110.571 34.77C110.797 34.3433 111.107 34.0133 111.501 33.78C111.901 33.5467 112.344 33.43 112.831 33.43C113.311 33.43 113.727 33.5333 114.081 33.74C114.434 33.9467 114.697 34.2067 114.871 34.52V33.52H115.791V39H114.871V37.98C114.691 38.3 114.421 38.5667 114.061 38.78C113.707 38.9867 113.294 39.09 112.821 39.09C112.334 39.09 111.894 38.97 111.501 38.73C111.107 38.49 110.797 38.1533 110.571 37.72C110.344 37.2867 110.231 36.7933 110.231 36.24ZM114.871 36.25C114.871 35.8367 114.787 35.4767 114.621 35.17C114.454 34.8633 114.227 34.63 113.941 34.47C113.661 34.3033 113.351 34.22 113.011 34.22C112.671 34.22 112.361 34.3 112.081 34.46C111.801 34.62 111.577 34.8533 111.411 35.16C111.244 35.4667 111.161 35.8267 111.161 36.24C111.161 36.66 111.244 37.0267 111.411 37.34C111.577 37.6467 111.801 37.8833 112.081 38.05C112.361 38.21 112.671 38.29 113.011 38.29C113.351 38.29 113.661 38.21 113.941 38.05C114.227 37.8833 114.454 37.6467 114.621 37.34C114.787 37.0267 114.871 36.6633 114.871 36.25ZM119.269 39.09C118.849 39.09 118.472 39.02 118.139 38.88C117.805 38.7333 117.542 38.5333 117.349 38.28C117.155 38.02 117.049 37.7233 117.029 37.39H117.969C117.995 37.6633 118.122 37.8867 118.349 38.06C118.582 38.2333 118.885 38.32 119.259 38.32C119.605 38.32 119.879 38.2433 120.079 38.09C120.279 37.9367 120.379 37.7433 120.379 37.51C120.379 37.27 120.272 37.0933 120.059 36.98C119.845 36.86 119.515 36.7433 119.069 36.63C118.662 36.5233 118.329 36.4167 118.069 36.31C117.815 36.1967 117.595 36.0333 117.409 35.82C117.229 35.6 117.139 35.3133 117.139 34.96C117.139 34.68 117.222 34.4233 117.389 34.19C117.555 33.9567 117.792 33.7733 118.099 33.64C118.405 33.5 118.755 33.43 119.149 33.43C119.755 33.43 120.245 33.5833 120.619 33.89C120.992 34.1967 121.192 34.6167 121.219 35.15H120.309C120.289 34.8633 120.172 34.6333 119.959 34.46C119.752 34.2867 119.472 34.2 119.119 34.2C118.792 34.2 118.532 34.27 118.339 34.41C118.145 34.55 118.049 34.7333 118.049 34.96C118.049 35.14 118.105 35.29 118.219 35.41C118.339 35.5233 118.485 35.6167 118.659 35.69C118.839 35.7567 119.085 35.8333 119.399 35.92C119.792 36.0267 120.112 36.1333 120.359 36.24C120.605 36.34 120.815 36.4933 120.989 36.7C121.169 36.9067 121.262 37.1767 121.269 37.51C121.269 37.81 121.185 38.08 121.019 38.32C120.852 38.56 120.615 38.75 120.309 38.89C120.009 39.0233 119.662 39.09 119.269 39.09ZM127.553 36.05C127.553 36.2233 127.543 36.4067 127.523 36.6H123.143C123.177 37.14 123.36 37.5633 123.693 37.87C124.033 38.17 124.443 38.32 124.923 38.32C125.317 38.32 125.643 38.23 125.903 38.05C126.17 37.8633 126.357 37.6167 126.463 37.31H127.443C127.297 37.8367 127.003 38.2667 126.563 38.6C126.123 38.9267 125.577 39.09 124.923 39.09C124.403 39.09 123.937 38.9733 123.523 38.74C123.117 38.5067 122.797 38.1767 122.563 37.75C122.33 37.3167 122.213 36.8167 122.213 36.25C122.213 35.6833 122.327 35.1867 122.553 34.76C122.78 34.3333 123.097 34.0067 123.503 33.78C123.917 33.5467 124.39 33.43 124.923 33.43C125.443 33.43 125.903 33.5433 126.303 33.77C126.703 33.9967 127.01 34.31 127.223 34.71C127.443 35.1033 127.553 35.55 127.553 36.05ZM126.613 35.86C126.613 35.5133 126.537 35.2167 126.383 34.97C126.23 34.7167 126.02 34.5267 125.753 34.4C125.493 34.2667 125.203 34.2 124.883 34.2C124.423 34.2 124.03 34.3467 123.703 34.64C123.383 34.9333 123.2 35.34 123.153 35.86H126.613ZM128.414 36.24C128.414 35.68 128.528 35.19 128.754 34.77C128.981 34.3433 129.291 34.0133 129.684 33.78C130.084 33.5467 130.531 33.43 131.024 33.43C131.451 33.43 131.848 33.53 132.214 33.73C132.581 33.9233 132.861 34.18 133.054 34.5V31.6H133.974V39H133.054V37.97C132.874 38.2967 132.608 38.5667 132.254 38.78C131.901 38.9867 131.488 39.09 131.014 39.09C130.528 39.09 130.084 38.97 129.684 38.73C129.291 38.49 128.981 38.1533 128.754 37.72C128.528 37.2867 128.414 36.7933 128.414 36.24ZM133.054 36.25C133.054 35.8367 132.971 35.4767 132.804 35.17C132.638 34.8633 132.411 34.63 132.124 34.47C131.844 34.3033 131.534 34.22 131.194 34.22C130.854 34.22 130.544 34.3 130.264 34.46C129.984 34.62 129.761 34.8533 129.594 35.16C129.428 35.4667 129.344 35.8267 129.344 36.24C129.344 36.66 129.428 37.0267 129.594 37.34C129.761 37.6467 129.984 37.8833 130.264 38.05C130.544 38.21 130.854 38.29 131.194 38.29C131.534 38.29 131.844 38.21 132.124 38.05C132.411 37.8833 132.638 37.6467 132.804 37.34C132.971 37.0267 133.054 36.6633 133.054 36.25ZM137.838 35.51C137.838 34.83 137.992 34.22 138.298 33.68C138.605 33.1333 139.022 32.7067 139.548 32.4C140.082 32.0933 140.672 31.94 141.318 31.94C142.078 31.94 142.742 32.1233 143.308 32.49C143.875 32.8567 144.288 33.3767 144.548 34.05H143.458C143.265 33.63 142.985 33.3067 142.618 33.08C142.258 32.8533 141.825 32.74 141.318 32.74C140.832 32.74 140.395 32.8533 140.008 33.08C139.622 33.3067 139.318 33.63 139.098 34.05C138.878 34.4633 138.768 34.95 138.768 35.51C138.768 36.0633 138.878 36.55 139.098 36.97C139.318 37.3833 139.622 37.7033 140.008 37.93C140.395 38.1567 140.832 38.27 141.318 38.27C141.825 38.27 142.258 38.16 142.618 37.94C142.985 37.7133 143.265 37.39 143.458 36.97H144.548C144.288 37.6367 143.875 38.1533 143.308 38.52C142.742 38.88 142.078 39.06 141.318 39.06C140.672 39.06 140.082 38.91 139.548 38.61C139.022 38.3033 138.605 37.88 138.298 37.34C137.992 36.8 137.838 36.19 137.838 35.51ZM148.293 39.09C147.779 39.09 147.313 38.9733 146.893 38.74C146.479 38.5067 146.153 38.1767 145.913 37.75C145.679 37.3167 145.563 36.8167 145.563 36.25C145.563 35.69 145.683 35.1967 145.923 34.77C146.169 34.3367 146.503 34.0067 146.923 33.78C147.343 33.5467 147.813 33.43 148.333 33.43C148.853 33.43 149.323 33.5467 149.743 33.78C150.163 34.0067 150.493 34.3333 150.733 34.76C150.979 35.1867 151.103 35.6833 151.103 36.25C151.103 36.8167 150.976 37.3167 150.723 37.75C150.476 38.1767 150.139 38.5067 149.713 38.74C149.286 38.9733 148.813 39.09 148.293 39.09ZM148.293 38.29C148.619 38.29 148.926 38.2133 149.213 38.06C149.499 37.9067 149.729 37.6767 149.903 37.37C150.083 37.0633 150.173 36.69 150.173 36.25C150.173 35.81 150.086 35.4367 149.913 35.13C149.739 34.8233 149.513 34.5967 149.233 34.45C148.953 34.2967 148.649 34.22 148.323 34.22C147.989 34.22 147.683 34.2967 147.403 34.45C147.129 34.5967 146.909 34.8233 146.743 35.13C146.576 35.4367 146.493 35.81 146.493 36.25C146.493 36.6967 146.573 37.0733 146.733 37.38C146.899 37.6867 147.119 37.9167 147.393 38.07C147.666 38.2167 147.966 38.29 148.293 38.29ZM157.159 33.52V39H156.249V38.19C156.076 38.47 155.833 38.69 155.519 38.85C155.213 39.0033 154.873 39.08 154.499 39.08C154.073 39.08 153.689 38.9933 153.349 38.82C153.009 38.64 152.739 38.3733 152.539 38.02C152.346 37.6667 152.249 37.2367 152.249 36.73V33.52H153.149V36.61C153.149 37.15 153.286 37.5667 153.559 37.86C153.833 38.1467 154.206 38.29 154.679 38.29C155.166 38.29 155.549 38.14 155.829 37.84C156.109 37.54 156.249 37.1033 156.249 36.53V33.52H157.159ZM159.606 34.41C159.766 34.0967 159.992 33.8533 160.286 33.68C160.586 33.5067 160.949 33.42 161.376 33.42V34.36H161.136C160.116 34.36 159.606 34.9133 159.606 36.02V39H158.696V33.52H159.606V34.41ZM164.366 39.09C163.946 39.09 163.57 39.02 163.236 38.88C162.903 38.7333 162.64 38.5333 162.446 38.28C162.253 38.02 162.146 37.7233 162.126 37.39H163.066C163.093 37.6633 163.22 37.8867 163.446 38.06C163.68 38.2333 163.983 38.32 164.356 38.32C164.703 38.32 164.976 38.2433 165.176 38.09C165.376 37.9367 165.476 37.7433 165.476 37.51C165.476 37.27 165.37 37.0933 165.156 36.98C164.943 36.86 164.613 36.7433 164.166 36.63C163.76 36.5233 163.426 36.4167 163.166 36.31C162.913 36.1967 162.693 36.0333 162.506 35.82C162.326 35.6 162.236 35.3133 162.236 34.96C162.236 34.68 162.32 34.4233 162.486 34.19C162.653 33.9567 162.89 33.7733 163.196 33.64C163.503 33.5 163.853 33.43 164.246 33.43C164.853 33.43 165.343 33.5833 165.716 33.89C166.09 34.1967 166.29 34.6167 166.316 35.15H165.406C165.386 34.8633 165.27 34.6333 165.056 34.46C164.85 34.2867 164.57 34.2 164.216 34.2C163.89 34.2 163.63 34.27 163.436 34.41C163.243 34.55 163.146 34.7333 163.146 34.96C163.146 35.14 163.203 35.29 163.316 35.41C163.436 35.5233 163.583 35.6167 163.756 35.69C163.936 35.7567 164.183 35.8333 164.496 35.92C164.89 36.0267 165.21 36.1333 165.456 36.24C165.703 36.34 165.913 36.4933 166.086 36.7C166.266 36.9067 166.36 37.1767 166.366 37.51C166.366 37.81 166.283 38.08 166.116 38.32C165.95 38.56 165.713 38.75 165.406 38.89C165.106 39.0233 164.76 39.09 164.366 39.09ZM172.651 36.05C172.651 36.2233 172.641 36.4067 172.621 36.6H168.241C168.274 37.14 168.458 37.5633 168.791 37.87C169.131 38.17 169.541 38.32 170.021 38.32C170.414 38.32 170.741 38.23 171.001 38.05C171.268 37.8633 171.454 37.6167 171.561 37.31H172.541C172.394 37.8367 172.101 38.2667 171.661 38.6C171.221 38.9267 170.674 39.09 170.021 39.09C169.501 39.09 169.034 38.9733 168.621 38.74C168.214 38.5067 167.894 38.1767 167.661 37.75C167.428 37.3167 167.311 36.8167 167.311 36.25C167.311 35.6833 167.424 35.1867 167.651 34.76C167.878 34.3333 168.194 34.0067 168.601 33.78C169.014 33.5467 169.488 33.43 170.021 33.43C170.541 33.43 171.001 33.5433 171.401 33.77C171.801 33.9967 172.108 34.31 172.321 34.71C172.541 35.1033 172.651 35.55 172.651 36.05ZM171.711 35.86C171.711 35.5133 171.634 35.2167 171.481 34.97C171.328 34.7167 171.118 34.5267 170.851 34.4C170.591 34.2667 170.301 34.2 169.981 34.2C169.521 34.2 169.128 34.3467 168.801 34.64C168.481 34.9333 168.298 35.34 168.251 35.86H171.711Z" fill="black" fill-opacity="0.64"/>
</svg>
