<svg width="191" height="46" viewBox="0 0 191 46" fill="none" xmlns="http://www.w3.org/2000/svg">
<rect width="191" height="46" rx="23" fill="#FFFDD6"/>
<path d="M49.11 13.575L45.195 24H43.215L39.285 13.575H41.115L44.205 22.245L47.31 13.575H49.11ZM58.115 19.665C58.115 19.975 58.095 20.255 58.055 20.505H51.74C51.79 21.165 52.035 21.695 52.475 22.095C52.915 22.495 53.455 22.695 54.095 22.695C55.015 22.695 55.665 22.31 56.045 21.54H57.89C57.64 22.3 57.185 22.925 56.525 23.415C55.875 23.895 55.065 24.135 54.095 24.135C53.305 24.135 52.595 23.96 51.965 23.61C51.345 23.25 50.855 22.75 50.495 22.11C50.145 21.46 49.97 20.71 49.97 19.86C49.97 19.01 50.14 18.265 50.48 17.625C50.83 16.975 51.315 16.475 51.935 16.125C52.565 15.775 53.285 15.6 54.095 15.6C54.875 15.6 55.57 15.77 56.18 16.11C56.79 16.45 57.265 16.93 57.605 17.55C57.945 18.16 58.115 18.865 58.115 19.665ZM56.33 19.125C56.32 18.495 56.095 17.99 55.655 17.61C55.215 17.23 54.67 17.04 54.02 17.04C53.43 17.04 52.925 17.23 52.505 17.61C52.085 17.98 51.835 18.485 51.755 19.125H56.33ZM61.5079 16.935C61.7579 16.515 62.0879 16.19 62.4979 15.96C62.9179 15.72 63.4129 15.6 63.9829 15.6V17.37H63.5479C62.8779 17.37 62.3679 17.54 62.0179 17.88C61.6779 18.22 61.5079 18.81 61.5079 19.65V24H59.7979V15.735H61.5079V16.935ZM66.4247 14.64C66.1147 14.64 65.8547 14.535 65.6447 14.325C65.4347 14.115 65.3297 13.855 65.3297 13.545C65.3297 13.235 65.4347 12.975 65.6447 12.765C65.8547 12.555 66.1147 12.45 66.4247 12.45C66.7247 12.45 66.9797 12.555 67.1897 12.765C67.3997 12.975 67.5047 13.235 67.5047 13.545C67.5047 13.855 67.3997 14.115 67.1897 14.325C66.9797 14.535 66.7247 14.64 66.4247 14.64ZM67.2647 15.735V24H65.5547V15.735H67.2647ZM72.9748 17.13H71.4448V24H69.7198V17.13H68.7448V15.735H69.7198V15.15C69.7198 14.2 69.9698 13.51 70.4698 13.08C70.9798 12.64 71.7748 12.42 72.8548 12.42V13.845C72.3348 13.845 71.9698 13.945 71.7598 14.145C71.5498 14.335 71.4448 14.67 71.4448 15.15V15.735H72.9748V17.13ZM75.3602 14.64C75.0502 14.64 74.7902 14.535 74.5802 14.325C74.3702 14.115 74.2652 13.855 74.2652 13.545C74.2652 13.235 74.3702 12.975 74.5802 12.765C74.7902 12.555 75.0502 12.45 75.3602 12.45C75.6602 12.45 75.9152 12.555 76.1252 12.765C76.3352 12.975 76.4402 13.235 76.4402 13.545C76.4402 13.855 76.3352 14.115 76.1252 14.325C75.9152 14.535 75.6602 14.64 75.3602 14.64ZM76.2002 15.735V24H74.4902V15.735H76.2002ZM86.0203 19.665C86.0203 19.975 86.0003 20.255 85.9603 20.505H79.6453C79.6953 21.165 79.9403 21.695 80.3803 22.095C80.8203 22.495 81.3603 22.695 82.0003 22.695C82.9203 22.695 83.5703 22.31 83.9503 21.54H85.7953C85.5453 22.3 85.0903 22.925 84.4303 23.415C83.7803 23.895 82.9703 24.135 82.0003 24.135C81.2103 24.135 80.5003 23.96 79.8703 23.61C79.2503 23.25 78.7603 22.75 78.4003 22.11C78.0503 21.46 77.8753 20.71 77.8753 19.86C77.8753 19.01 78.0453 18.265 78.3853 17.625C78.7353 16.975 79.2203 16.475 79.8403 16.125C80.4703 15.775 81.1903 15.6 82.0003 15.6C82.7803 15.6 83.4753 15.77 84.0853 16.11C84.6953 16.45 85.1703 16.93 85.5103 17.55C85.8503 18.16 86.0203 18.865 86.0203 19.665ZM84.2353 19.125C84.2253 18.495 84.0003 17.99 83.5603 17.61C83.1203 17.23 82.5753 17.04 81.9253 17.04C81.3353 17.04 80.8303 17.23 80.4103 17.61C79.9903 17.98 79.7403 18.485 79.6603 19.125H84.2353ZM87.1331 19.83C87.1331 19 87.3031 18.265 87.6431 17.625C87.9931 16.985 88.4631 16.49 89.0531 16.14C89.6531 15.78 90.3181 15.6 91.0481 15.6C91.5881 15.6 92.1181 15.72 92.6381 15.96C93.1681 16.19 93.5881 16.5 93.8981 16.89V12.9H95.6231V24H93.8981V22.755C93.6181 23.155 93.2281 23.485 92.7281 23.745C92.2381 24.005 91.6731 24.135 91.0331 24.135C90.3131 24.135 89.6531 23.955 89.0531 23.595C88.4631 23.225 87.9931 22.715 87.6431 22.065C87.3031 21.405 87.1331 20.66 87.1331 19.83ZM93.8981 19.86C93.8981 19.29 93.7781 18.795 93.5381 18.375C93.3081 17.955 93.0031 17.635 92.6231 17.415C92.2431 17.195 91.8331 17.085 91.3931 17.085C90.9531 17.085 90.5431 17.195 90.1631 17.415C89.7831 17.625 89.4731 17.94 89.2331 18.36C89.0031 18.77 88.8881 19.26 88.8881 19.83C88.8881 20.4 89.0031 20.9 89.2331 21.33C89.4731 21.76 89.7831 22.09 90.1631 22.32C90.5531 22.54 90.9631 22.65 91.3931 22.65C91.8331 22.65 92.2431 22.54 92.6231 22.32C93.0031 22.1 93.3081 21.78 93.5381 21.36C93.7781 20.93 93.8981 20.43 93.8981 19.86ZM112.866 15.735L110.301 24H108.501L106.836 17.895L105.171 24H103.371L100.791 15.735H102.531L104.256 22.38L106.011 15.735H107.796L109.476 22.35L111.186 15.735H112.866ZM115.014 14.64C114.704 14.64 114.444 14.535 114.234 14.325C114.024 14.115 113.919 13.855 113.919 13.545C113.919 13.235 114.024 12.975 114.234 12.765C114.444 12.555 114.704 12.45 115.014 12.45C115.314 12.45 115.569 12.555 115.779 12.765C115.989 12.975 116.094 13.235 116.094 13.545C116.094 13.855 115.989 14.115 115.779 14.325C115.569 14.535 115.314 14.64 115.014 14.64ZM115.854 15.735V24H114.144V15.735H115.854ZM120.094 17.13V21.705C120.094 22.015 120.164 22.24 120.304 22.38C120.454 22.51 120.704 22.575 121.054 22.575H122.104V24H120.754C119.984 24 119.394 23.82 118.984 23.46C118.574 23.1 118.369 22.515 118.369 21.705V17.13H117.394V15.735H118.369V13.68H120.094V15.735H122.104V17.13H120.094ZM127.955 15.6C128.585 15.6 129.145 15.735 129.635 16.005C130.135 16.275 130.525 16.675 130.805 17.205C131.095 17.735 131.24 18.375 131.24 19.125V24H129.545V19.38C129.545 18.64 129.36 18.075 128.99 17.685C128.62 17.285 128.115 17.085 127.475 17.085C126.835 17.085 126.325 17.285 125.945 17.685C125.575 18.075 125.39 18.64 125.39 19.38V24H123.68V12.9H125.39V16.695C125.68 16.345 126.045 16.075 126.485 15.885C126.935 15.695 127.425 15.6 127.955 15.6ZM143.602 21.87H139.237L138.487 24H136.702L140.437 13.56H142.417L146.152 24H144.352L143.602 21.87ZM143.122 20.475L141.427 15.63L139.717 20.475H143.122ZM149.486 13.575V24H147.776V13.575H149.486Z" fill="black"/>
<path d="M36.625 37H35.806L32.512 32.005V37H31.693V30.718H32.512L35.806 35.704V30.718H36.625V37ZM40.1721 37.081C39.7101 37.081 39.2901 36.976 38.9121 36.766C38.5401 36.556 38.2461 36.259 38.0301 35.875C37.8201 35.485 37.7151 35.035 37.7151 34.525C37.7151 34.021 37.8231 33.577 38.0391 33.193C38.2611 32.803 38.5611 32.506 38.9391 32.302C39.3171 32.092 39.7401 31.987 40.2081 31.987C40.6761 31.987 41.0991 32.092 41.4771 32.302C41.8551 32.506 42.1521 32.8 42.3681 33.184C42.5901 33.568 42.7011 34.015 42.7011 34.525C42.7011 35.035 42.5871 35.485 42.3591 35.875C42.1371 36.259 41.8341 36.556 41.4501 36.766C41.0661 36.976 40.6401 37.081 40.1721 37.081ZM40.1721 36.361C40.4661 36.361 40.7421 36.292 41.0001 36.154C41.2581 36.016 41.4651 35.809 41.6211 35.533C41.7831 35.257 41.8641 34.921 41.8641 34.525C41.8641 34.129 41.7861 33.793 41.6301 33.517C41.4741 33.241 41.2701 33.037 41.0181 32.905C40.7661 32.767 40.4931 32.698 40.1991 32.698C39.8991 32.698 39.6231 32.767 39.3711 32.905C39.1251 33.037 38.9271 33.241 38.7771 33.517C38.6271 33.793 38.5521 34.129 38.5521 34.525C38.5521 34.927 38.6241 35.266 38.7681 35.542C38.9181 35.818 39.1161 36.025 39.3621 36.163C39.6081 36.295 39.8781 36.361 40.1721 36.361ZM46.181 31.978C46.781 31.978 47.267 32.161 47.639 32.527C48.011 32.887 48.197 33.409 48.197 34.093V37H47.387V34.21C47.387 33.718 47.264 33.343 47.018 33.085C46.772 32.821 46.436 32.689 46.01 32.689C45.578 32.689 45.233 32.824 44.975 33.094C44.723 33.364 44.597 33.757 44.597 34.273V37H43.778V32.068H44.597V32.77C44.759 32.518 44.978 32.323 45.254 32.185C45.536 32.047 45.845 31.978 46.181 31.978ZM52.9548 33.355V34.048H49.3638V33.355H52.9548ZM57.7948 37L56.3008 34.435H55.3108V37H54.4918V30.727H56.5168C56.9908 30.727 57.3898 30.808 57.7138 30.97C58.0438 31.132 58.2898 31.351 58.4518 31.627C58.6138 31.903 58.6948 32.218 58.6948 32.572C58.6948 33.004 58.5688 33.385 58.3168 33.715C58.0708 34.045 57.6988 34.264 57.2008 34.372L58.7758 37H57.7948ZM55.3108 33.778H56.5168C56.9608 33.778 57.2938 33.67 57.5158 33.454C57.7378 33.232 57.8488 32.938 57.8488 32.572C57.8488 32.2 57.7378 31.912 57.5158 31.708C57.2998 31.504 56.9668 31.402 56.5168 31.402H55.3108V33.778ZM64.4674 34.345C64.4674 34.501 64.4584 34.666 64.4404 34.84H60.4984C60.5284 35.326 60.6934 35.707 60.9934 35.983C61.2994 36.253 61.6684 36.388 62.1004 36.388C62.4544 36.388 62.7484 36.307 62.9824 36.145C63.2224 35.977 63.3904 35.755 63.4864 35.479H64.3684C64.2364 35.953 63.9724 36.34 63.5764 36.64C63.1804 36.934 62.6884 37.081 62.1004 37.081C61.6324 37.081 61.2124 36.976 60.8404 36.766C60.4744 36.556 60.1864 36.259 59.9764 35.875C59.7664 35.485 59.6614 35.035 59.6614 34.525C59.6614 34.015 59.7634 33.568 59.9674 33.184C60.1714 32.8 60.4564 32.506 60.8224 32.302C61.1944 32.092 61.6204 31.987 62.1004 31.987C62.5684 31.987 62.9824 32.089 63.3424 32.293C63.7024 32.497 63.9784 32.779 64.1704 33.139C64.3684 33.493 64.4674 33.895 64.4674 34.345ZM63.6214 34.174C63.6214 33.862 63.5524 33.595 63.4144 33.373C63.2764 33.145 63.0874 32.974 62.8474 32.86C62.6134 32.74 62.3524 32.68 62.0644 32.68C61.6504 32.68 61.2964 32.812 61.0024 33.076C60.7144 33.34 60.5494 33.706 60.5074 34.174H63.6214ZM67.2945 37.081C66.9165 37.081 66.5775 37.018 66.2775 36.892C65.9775 36.76 65.7405 36.58 65.5665 36.352C65.3925 36.118 65.2965 35.851 65.2785 35.551H66.1245C66.1485 35.797 66.2625 35.998 66.4665 36.154C66.6765 36.31 66.9495 36.388 67.2855 36.388C67.5975 36.388 67.8435 36.319 68.0235 36.181C68.2035 36.043 68.2935 35.869 68.2935 35.659C68.2935 35.443 68.1975 35.284 68.0055 35.182C67.8135 35.074 67.5165 34.969 67.1145 34.867C66.7485 34.771 66.4485 34.675 66.2145 34.579C65.9865 34.477 65.7885 34.33 65.6205 34.138C65.4585 33.94 65.3775 33.682 65.3775 33.364C65.3775 33.112 65.4525 32.881 65.6025 32.671C65.7525 32.461 65.9655 32.296 66.2415 32.176C66.5175 32.05 66.8325 31.987 67.1865 31.987C67.7325 31.987 68.1735 32.125 68.5095 32.401C68.8455 32.677 69.0255 33.055 69.0495 33.535H68.2305C68.2125 33.277 68.1075 33.07 67.9155 32.914C67.7295 32.758 67.4775 32.68 67.1595 32.68C66.8655 32.68 66.6315 32.743 66.4575 32.869C66.2835 32.995 66.1965 33.16 66.1965 33.364C66.1965 33.526 66.2475 33.661 66.3495 33.769C66.4575 33.871 66.5895 33.955 66.7455 34.021C66.9075 34.081 67.1295 34.15 67.4115 34.228C67.7655 34.324 68.0535 34.42 68.2755 34.516C68.4975 34.606 68.6865 34.744 68.8425 34.93C69.0045 35.116 69.0885 35.359 69.0945 35.659C69.0945 35.929 69.0195 36.172 68.8695 36.388C68.7195 36.604 68.5065 36.775 68.2305 36.901C67.9605 37.021 67.6485 37.081 67.2945 37.081ZM74.7506 34.345C74.7506 34.501 74.7416 34.666 74.7236 34.84H70.7816C70.8116 35.326 70.9766 35.707 71.2766 35.983C71.5826 36.253 71.9516 36.388 72.3836 36.388C72.7376 36.388 73.0316 36.307 73.2656 36.145C73.5056 35.977 73.6736 35.755 73.7696 35.479H74.6516C74.5196 35.953 74.2556 36.34 73.8596 36.64C73.4636 36.934 72.9716 37.081 72.3836 37.081C71.9156 37.081 71.4956 36.976 71.1236 36.766C70.7576 36.556 70.4696 36.259 70.2596 35.875C70.0496 35.485 69.9446 35.035 69.9446 34.525C69.9446 34.015 70.0466 33.568 70.2506 33.184C70.4546 32.8 70.7396 32.506 71.1056 32.302C71.4776 32.092 71.9036 31.987 72.3836 31.987C72.8516 31.987 73.2656 32.089 73.6256 32.293C73.9856 32.497 74.2616 32.779 74.4536 33.139C74.6516 33.493 74.7506 33.895 74.7506 34.345ZM73.9046 34.174C73.9046 33.862 73.8356 33.595 73.6976 33.373C73.5596 33.145 73.3706 32.974 73.1306 32.86C72.8966 32.74 72.6356 32.68 72.3476 32.68C71.9336 32.68 71.5796 32.812 71.2856 33.076C70.9976 33.34 70.8326 33.706 70.7906 34.174H73.9046ZM75.5257 34.516C75.5257 34.012 75.6277 33.571 75.8317 33.193C76.0357 32.809 76.3147 32.512 76.6687 32.302C77.0287 32.092 77.4277 31.987 77.8657 31.987C78.2977 31.987 78.6727 32.08 78.9907 32.266C79.3087 32.452 79.5457 32.686 79.7017 32.968V32.068H80.5297V37H79.7017V36.082C79.5397 36.37 79.2967 36.61 78.9727 36.802C78.6547 36.988 78.2827 37.081 77.8567 37.081C77.4187 37.081 77.0227 36.973 76.6687 36.757C76.3147 36.541 76.0357 36.238 75.8317 35.848C75.6277 35.458 75.5257 35.014 75.5257 34.516ZM79.7017 34.525C79.7017 34.153 79.6267 33.829 79.4767 33.553C79.3267 33.277 79.1227 33.067 78.8647 32.923C78.6127 32.773 78.3337 32.698 78.0277 32.698C77.7217 32.698 77.4427 32.77 77.1907 32.914C76.9387 33.058 76.7377 33.268 76.5877 33.544C76.4377 33.82 76.3627 34.144 76.3627 34.516C76.3627 34.894 76.4377 35.224 76.5877 35.506C76.7377 35.782 76.9387 35.995 77.1907 36.145C77.4427 36.289 77.7217 36.361 78.0277 36.361C78.3337 36.361 78.6127 36.289 78.8647 36.145C79.1227 35.995 79.3267 35.782 79.4767 35.506C79.6267 35.224 79.7017 34.897 79.7017 34.525ZM82.7327 32.869C82.8767 32.587 83.0807 32.368 83.3447 32.212C83.6147 32.056 83.9417 31.978 84.3257 31.978V32.824H84.1097C83.1917 32.824 82.7327 33.322 82.7327 34.318V37H81.9137V32.068H82.7327V32.869ZM84.9651 34.525C84.9651 34.015 85.0671 33.571 85.2711 33.193C85.4751 32.809 85.7571 32.512 86.1171 32.302C86.4831 32.092 86.9001 31.987 87.3681 31.987C87.9741 31.987 88.4721 32.134 88.8621 32.428C89.2581 32.722 89.5191 33.13 89.6451 33.652H88.7631C88.6791 33.352 88.5141 33.115 88.2681 32.941C88.0281 32.767 87.7281 32.68 87.3681 32.68C86.9001 32.68 86.5221 32.842 86.2341 33.166C85.9461 33.484 85.8021 33.937 85.8021 34.525C85.8021 35.119 85.9461 35.578 86.2341 35.902C86.5221 36.226 86.9001 36.388 87.3681 36.388C87.7281 36.388 88.0281 36.304 88.2681 36.136C88.5081 35.968 88.6731 35.728 88.7631 35.416H89.6451C89.5131 35.92 89.2491 36.325 88.8531 36.631C88.4571 36.931 87.9621 37.081 87.3681 37.081C86.9001 37.081 86.4831 36.976 86.1171 36.766C85.7571 36.556 85.4751 36.259 85.2711 35.875C85.0671 35.491 84.9651 35.041 84.9651 34.525ZM93.1859 31.978C93.5579 31.978 93.8939 32.059 94.1939 32.221C94.4939 32.377 94.7279 32.614 94.8959 32.932C95.0699 33.25 95.1569 33.637 95.1569 34.093V37H94.3469V34.21C94.3469 33.718 94.2239 33.343 93.9779 33.085C93.7319 32.821 93.3959 32.689 92.9699 32.689C92.5379 32.689 92.1929 32.824 91.9349 33.094C91.6829 33.364 91.5569 33.757 91.5569 34.273V37H90.7379V30.34H91.5569V32.77C91.7189 32.518 91.9409 32.323 92.2229 32.185C92.5109 32.047 92.8319 31.978 93.1859 31.978ZM102.035 33.769C102.263 33.805 102.47 33.898 102.656 34.048C102.848 34.198 102.998 34.384 103.106 34.606C103.22 34.828 103.277 35.065 103.277 35.317C103.277 35.635 103.196 35.923 103.034 36.181C102.872 36.433 102.635 36.634 102.323 36.784C102.017 36.928 101.654 37 101.234 37H98.8942V30.727H101.144C101.57 30.727 101.933 30.799 102.233 30.943C102.533 31.081 102.758 31.27 102.908 31.51C103.058 31.75 103.133 32.02 103.133 32.32C103.133 32.692 103.031 33.001 102.827 33.247C102.629 33.487 102.365 33.661 102.035 33.769ZM99.7132 33.436H101.09C101.474 33.436 101.771 33.346 101.981 33.166C102.191 32.986 102.296 32.737 102.296 32.419C102.296 32.101 102.191 31.852 101.981 31.672C101.771 31.492 101.468 31.402 101.072 31.402H99.7132V33.436ZM101.162 36.325C101.57 36.325 101.888 36.229 102.116 36.037C102.344 35.845 102.458 35.578 102.458 35.236C102.458 34.888 102.338 34.615 102.098 34.417C101.858 34.213 101.537 34.111 101.135 34.111H99.7132V36.325H101.162ZM104.108 34.516C104.108 34.012 104.21 33.571 104.414 33.193C104.618 32.809 104.897 32.512 105.251 32.302C105.611 32.092 106.01 31.987 106.448 31.987C106.88 31.987 107.255 32.08 107.573 32.266C107.891 32.452 108.128 32.686 108.284 32.968V32.068H109.112V37H108.284V36.082C108.122 36.37 107.879 36.61 107.555 36.802C107.237 36.988 106.865 37.081 106.439 37.081C106.001 37.081 105.605 36.973 105.251 36.757C104.897 36.541 104.618 36.238 104.414 35.848C104.21 35.458 104.108 35.014 104.108 34.516ZM108.284 34.525C108.284 34.153 108.209 33.829 108.059 33.553C107.909 33.277 107.705 33.067 107.447 32.923C107.195 32.773 106.916 32.698 106.61 32.698C106.304 32.698 106.025 32.77 105.773 32.914C105.521 33.058 105.32 33.268 105.17 33.544C105.02 33.82 104.945 34.144 104.945 34.516C104.945 34.894 105.02 35.224 105.17 35.506C105.32 35.782 105.521 35.995 105.773 36.145C106.025 36.289 106.304 36.361 106.61 36.361C106.916 36.361 107.195 36.289 107.447 36.145C107.705 35.995 107.909 35.782 108.059 35.506C108.209 35.224 108.284 34.897 108.284 34.525ZM112.242 37.081C111.864 37.081 111.525 37.018 111.225 36.892C110.925 36.76 110.688 36.58 110.514 36.352C110.34 36.118 110.244 35.851 110.226 35.551H111.072C111.096 35.797 111.21 35.998 111.414 36.154C111.624 36.31 111.897 36.388 112.233 36.388C112.545 36.388 112.791 36.319 112.971 36.181C113.151 36.043 113.241 35.869 113.241 35.659C113.241 35.443 113.145 35.284 112.953 35.182C112.761 35.074 112.464 34.969 112.062 34.867C111.696 34.771 111.396 34.675 111.162 34.579C110.934 34.477 110.736 34.33 110.568 34.138C110.406 33.94 110.325 33.682 110.325 33.364C110.325 33.112 110.4 32.881 110.55 32.671C110.7 32.461 110.913 32.296 111.189 32.176C111.465 32.05 111.78 31.987 112.134 31.987C112.68 31.987 113.121 32.125 113.457 32.401C113.793 32.677 113.973 33.055 113.997 33.535H113.178C113.16 33.277 113.055 33.07 112.863 32.914C112.677 32.758 112.425 32.68 112.107 32.68C111.813 32.68 111.579 32.743 111.405 32.869C111.231 32.995 111.144 33.16 111.144 33.364C111.144 33.526 111.195 33.661 111.297 33.769C111.405 33.871 111.537 33.955 111.693 34.021C111.855 34.081 112.077 34.15 112.359 34.228C112.713 34.324 113.001 34.42 113.223 34.516C113.445 34.606 113.634 34.744 113.79 34.93C113.952 35.116 114.036 35.359 114.042 35.659C114.042 35.929 113.967 36.172 113.817 36.388C113.667 36.604 113.454 36.775 113.178 36.901C112.908 37.021 112.596 37.081 112.242 37.081ZM119.698 34.345C119.698 34.501 119.689 34.666 119.671 34.84H115.729C115.759 35.326 115.924 35.707 116.224 35.983C116.53 36.253 116.899 36.388 117.331 36.388C117.685 36.388 117.979 36.307 118.213 36.145C118.453 35.977 118.621 35.755 118.717 35.479H119.599C119.467 35.953 119.203 36.34 118.807 36.64C118.411 36.934 117.919 37.081 117.331 37.081C116.863 37.081 116.443 36.976 116.071 36.766C115.705 36.556 115.417 36.259 115.207 35.875C114.997 35.485 114.892 35.035 114.892 34.525C114.892 34.015 114.994 33.568 115.198 33.184C115.402 32.8 115.687 32.506 116.053 32.302C116.425 32.092 116.851 31.987 117.331 31.987C117.799 31.987 118.213 32.089 118.573 32.293C118.933 32.497 119.209 32.779 119.401 33.139C119.599 33.493 119.698 33.895 119.698 34.345ZM118.852 34.174C118.852 33.862 118.783 33.595 118.645 33.373C118.507 33.145 118.318 32.974 118.078 32.86C117.844 32.74 117.583 32.68 117.295 32.68C116.881 32.68 116.527 32.812 116.233 33.076C115.945 33.34 115.78 33.706 115.738 34.174H118.852ZM120.473 34.516C120.473 34.012 120.575 33.571 120.779 33.193C120.983 32.809 121.262 32.512 121.616 32.302C121.976 32.092 122.378 31.987 122.822 31.987C123.206 31.987 123.563 32.077 123.893 32.257C124.223 32.431 124.475 32.662 124.649 32.95V30.34H125.477V37H124.649V36.073C124.487 36.367 124.247 36.61 123.929 36.802C123.611 36.988 123.239 37.081 122.813 37.081C122.375 37.081 121.976 36.973 121.616 36.757C121.262 36.541 120.983 36.238 120.779 35.848C120.575 35.458 120.473 35.014 120.473 34.516ZM124.649 34.525C124.649 34.153 124.574 33.829 124.424 33.553C124.274 33.277 124.07 33.067 123.812 32.923C123.56 32.773 123.281 32.698 122.975 32.698C122.669 32.698 122.39 32.77 122.138 32.914C121.886 33.058 121.685 33.268 121.535 33.544C121.385 33.82 121.31 34.144 121.31 34.516C121.31 34.894 121.385 35.224 121.535 35.506C121.685 35.782 121.886 35.995 122.138 36.145C122.39 36.289 122.669 36.361 122.975 36.361C123.281 36.361 123.56 36.289 123.812 36.145C124.07 35.995 124.274 35.782 124.424 35.506C124.574 35.224 124.649 34.897 124.649 34.525ZM128.954 33.859C128.954 33.247 129.092 32.698 129.368 32.212C129.644 31.72 130.019 31.336 130.493 31.06C130.973 30.784 131.504 30.646 132.086 30.646C132.77 30.646 133.367 30.811 133.877 31.141C134.387 31.471 134.759 31.939 134.993 32.545H134.012C133.838 32.167 133.586 31.876 133.256 31.672C132.932 31.468 132.542 31.366 132.086 31.366C131.648 31.366 131.255 31.468 130.907 31.672C130.559 31.876 130.286 32.167 130.088 32.545C129.89 32.917 129.791 33.355 129.791 33.859C129.791 34.357 129.89 34.795 130.088 35.173C130.286 35.545 130.559 35.833 130.907 36.037C131.255 36.241 131.648 36.343 132.086 36.343C132.542 36.343 132.932 36.244 133.256 36.046C133.586 35.842 133.838 35.551 134.012 35.173H134.993C134.759 35.773 134.387 36.238 133.877 36.568C133.367 36.892 132.77 37.054 132.086 37.054C131.504 37.054 130.973 36.919 130.493 36.649C130.019 36.373 129.644 35.992 129.368 35.506C129.092 35.02 128.954 34.471 128.954 33.859ZM138.364 37.081C137.902 37.081 137.482 36.976 137.104 36.766C136.732 36.556 136.438 36.259 136.222 35.875C136.012 35.485 135.907 35.035 135.907 34.525C135.907 34.021 136.015 33.577 136.231 33.193C136.453 32.803 136.753 32.506 137.131 32.302C137.509 32.092 137.932 31.987 138.4 31.987C138.868 31.987 139.291 32.092 139.669 32.302C140.047 32.506 140.344 32.8 140.56 33.184C140.782 33.568 140.893 34.015 140.893 34.525C140.893 35.035 140.779 35.485 140.551 35.875C140.329 36.259 140.026 36.556 139.642 36.766C139.258 36.976 138.832 37.081 138.364 37.081ZM138.364 36.361C138.658 36.361 138.934 36.292 139.192 36.154C139.45 36.016 139.657 35.809 139.813 35.533C139.975 35.257 140.056 34.921 140.056 34.525C140.056 34.129 139.978 33.793 139.822 33.517C139.666 33.241 139.462 33.037 139.21 32.905C138.958 32.767 138.685 32.698 138.391 32.698C138.091 32.698 137.815 32.767 137.563 32.905C137.317 33.037 137.119 33.241 136.969 33.517C136.819 33.793 136.744 34.129 136.744 34.525C136.744 34.927 136.816 35.266 136.96 35.542C137.11 35.818 137.308 36.025 137.554 36.163C137.8 36.295 138.07 36.361 138.364 36.361ZM146.343 32.068V37H145.524V36.271C145.368 36.523 145.149 36.721 144.867 36.865C144.591 37.003 144.285 37.072 143.949 37.072C143.565 37.072 143.22 36.994 142.914 36.838C142.608 36.676 142.365 36.436 142.185 36.118C142.011 35.8 141.924 35.413 141.924 34.957V32.068H142.734V34.849C142.734 35.335 142.857 35.71 143.103 35.974C143.349 36.232 143.685 36.361 144.111 36.361C144.549 36.361 144.894 36.226 145.146 35.956C145.398 35.686 145.524 35.293 145.524 34.777V32.068H146.343ZM148.545 32.869C148.689 32.587 148.893 32.368 149.157 32.212C149.427 32.056 149.754 31.978 150.138 31.978V32.824H149.922C149.004 32.824 148.545 33.322 148.545 34.318V37H147.726V32.068H148.545V32.869ZM152.83 37.081C152.452 37.081 152.113 37.018 151.813 36.892C151.513 36.76 151.276 36.58 151.102 36.352C150.928 36.118 150.832 35.851 150.814 35.551H151.66C151.684 35.797 151.798 35.998 152.002 36.154C152.212 36.31 152.485 36.388 152.821 36.388C153.133 36.388 153.379 36.319 153.559 36.181C153.739 36.043 153.829 35.869 153.829 35.659C153.829 35.443 153.733 35.284 153.541 35.182C153.349 35.074 153.052 34.969 152.65 34.867C152.284 34.771 151.984 34.675 151.75 34.579C151.522 34.477 151.324 34.33 151.156 34.138C150.994 33.94 150.913 33.682 150.913 33.364C150.913 33.112 150.988 32.881 151.138 32.671C151.288 32.461 151.501 32.296 151.777 32.176C152.053 32.05 152.368 31.987 152.722 31.987C153.268 31.987 153.709 32.125 154.045 32.401C154.381 32.677 154.561 33.055 154.585 33.535H153.766C153.748 33.277 153.643 33.07 153.451 32.914C153.265 32.758 153.013 32.68 152.695 32.68C152.401 32.68 152.167 32.743 151.993 32.869C151.819 32.995 151.732 33.16 151.732 33.364C151.732 33.526 151.783 33.661 151.885 33.769C151.993 33.871 152.125 33.955 152.281 34.021C152.443 34.081 152.665 34.15 152.947 34.228C153.301 34.324 153.589 34.42 153.811 34.516C154.033 34.606 154.222 34.744 154.378 34.93C154.54 35.116 154.624 35.359 154.63 35.659C154.63 35.929 154.555 36.172 154.405 36.388C154.255 36.604 154.042 36.775 153.766 36.901C153.496 37.021 153.184 37.081 152.83 37.081ZM160.286 34.345C160.286 34.501 160.277 34.666 160.259 34.84H156.317C156.347 35.326 156.512 35.707 156.812 35.983C157.118 36.253 157.487 36.388 157.919 36.388C158.273 36.388 158.567 36.307 158.801 36.145C159.041 35.977 159.209 35.755 159.305 35.479H160.187C160.055 35.953 159.791 36.34 159.395 36.64C158.999 36.934 158.507 37.081 157.919 37.081C157.451 37.081 157.031 36.976 156.659 36.766C156.293 36.556 156.005 36.259 155.795 35.875C155.585 35.485 155.48 35.035 155.48 34.525C155.48 34.015 155.582 33.568 155.786 33.184C155.99 32.8 156.275 32.506 156.641 32.302C157.013 32.092 157.439 31.987 157.919 31.987C158.387 31.987 158.801 32.089 159.161 32.293C159.521 32.497 159.797 32.779 159.989 33.139C160.187 33.493 160.286 33.895 160.286 34.345ZM159.44 34.174C159.44 33.862 159.371 33.595 159.233 33.373C159.095 33.145 158.906 32.974 158.666 32.86C158.432 32.74 158.171 32.68 157.883 32.68C157.469 32.68 157.115 32.812 156.821 33.076C156.533 33.34 156.368 33.706 156.326 34.174H159.44Z" fill="black" fill-opacity="0.64"/>
</svg>
