<svg width="204" height="51" viewBox="0 0 204 51" fill="none" xmlns="http://www.w3.org/2000/svg">
<rect width="204" height="51" rx="25.5" fill="#D9FFD6"/>
<path d="M56.11 14.575L52.195 25H50.215L46.285 14.575H48.115L51.205 23.245L54.31 14.575H56.11ZM65.115 20.665C65.115 20.975 65.095 21.255 65.055 21.505H58.74C58.79 22.165 59.035 22.695 59.475 23.095C59.915 23.495 60.455 23.695 61.095 23.695C62.015 23.695 62.665 23.31 63.045 22.54H64.89C64.64 23.3 64.185 23.925 63.525 24.415C62.875 24.895 62.065 25.135 61.095 25.135C60.305 25.135 59.595 24.96 58.965 24.61C58.345 24.25 57.855 23.75 57.495 23.11C57.145 22.46 56.97 21.71 56.97 20.86C56.97 20.01 57.14 19.265 57.48 18.625C57.83 17.975 58.315 17.475 58.935 17.125C59.565 16.775 60.285 16.6 61.095 16.6C61.875 16.6 62.57 16.77 63.18 17.11C63.79 17.45 64.265 17.93 64.605 18.55C64.945 19.16 65.115 19.865 65.115 20.665ZM63.33 20.125C63.32 19.495 63.095 18.99 62.655 18.61C62.215 18.23 61.67 18.04 61.02 18.04C60.43 18.04 59.925 18.23 59.505 18.61C59.085 18.98 58.835 19.485 58.755 20.125H63.33ZM68.5079 17.935C68.7579 17.515 69.0879 17.19 69.4979 16.96C69.9179 16.72 70.4129 16.6 70.9829 16.6V18.37H70.5479C69.8779 18.37 69.3679 18.54 69.0179 18.88C68.6779 19.22 68.5079 19.81 68.5079 20.65V25H66.7979V16.735H68.5079V17.935ZM73.4247 15.64C73.1147 15.64 72.8547 15.535 72.6447 15.325C72.4347 15.115 72.3297 14.855 72.3297 14.545C72.3297 14.235 72.4347 13.975 72.6447 13.765C72.8547 13.555 73.1147 13.45 73.4247 13.45C73.7247 13.45 73.9797 13.555 74.1897 13.765C74.3997 13.975 74.5047 14.235 74.5047 14.545C74.5047 14.855 74.3997 15.115 74.1897 15.325C73.9797 15.535 73.7247 15.64 73.4247 15.64ZM74.2647 16.735V25H72.5547V16.735H74.2647ZM79.9748 18.13H78.4448V25H76.7198V18.13H75.7448V16.735H76.7198V16.15C76.7198 15.2 76.9698 14.51 77.4698 14.08C77.9798 13.64 78.7748 13.42 79.8548 13.42V14.845C79.3348 14.845 78.9698 14.945 78.7598 15.145C78.5498 15.335 78.4448 15.67 78.4448 16.15V16.735H79.9748V18.13ZM82.3602 15.64C82.0502 15.64 81.7902 15.535 81.5802 15.325C81.3702 15.115 81.2652 14.855 81.2652 14.545C81.2652 14.235 81.3702 13.975 81.5802 13.765C81.7902 13.555 82.0502 13.45 82.3602 13.45C82.6602 13.45 82.9152 13.555 83.1252 13.765C83.3352 13.975 83.4402 14.235 83.4402 14.545C83.4402 14.855 83.3352 15.115 83.1252 15.325C82.9152 15.535 82.6602 15.64 82.3602 15.64ZM83.2002 16.735V25H81.4902V16.735H83.2002ZM93.0203 20.665C93.0203 20.975 93.0003 21.255 92.9603 21.505H86.6453C86.6953 22.165 86.9403 22.695 87.3803 23.095C87.8203 23.495 88.3603 23.695 89.0003 23.695C89.9203 23.695 90.5703 23.31 90.9503 22.54H92.7953C92.5453 23.3 92.0903 23.925 91.4303 24.415C90.7803 24.895 89.9703 25.135 89.0003 25.135C88.2103 25.135 87.5003 24.96 86.8703 24.61C86.2503 24.25 85.7603 23.75 85.4003 23.11C85.0503 22.46 84.8753 21.71 84.8753 20.86C84.8753 20.01 85.0453 19.265 85.3853 18.625C85.7353 17.975 86.2203 17.475 86.8403 17.125C87.4703 16.775 88.1903 16.6 89.0003 16.6C89.7803 16.6 90.4753 16.77 91.0853 17.11C91.6953 17.45 92.1703 17.93 92.5103 18.55C92.8503 19.16 93.0203 19.865 93.0203 20.665ZM91.2353 20.125C91.2253 19.495 91.0003 18.99 90.5603 18.61C90.1203 18.23 89.5753 18.04 88.9253 18.04C88.3353 18.04 87.8303 18.23 87.4103 18.61C86.9903 18.98 86.7403 19.485 86.6603 20.125H91.2353ZM94.1331 20.83C94.1331 20 94.3031 19.265 94.6431 18.625C94.9931 17.985 95.4631 17.49 96.0531 17.14C96.6531 16.78 97.3181 16.6 98.0481 16.6C98.5881 16.6 99.1181 16.72 99.6381 16.96C100.168 17.19 100.588 17.5 100.898 17.89V13.9H102.623V25H100.898V23.755C100.618 24.155 100.228 24.485 99.7281 24.745C99.2381 25.005 98.6731 25.135 98.0331 25.135C97.3131 25.135 96.6531 24.955 96.0531 24.595C95.4631 24.225 94.9931 23.715 94.6431 23.065C94.3031 22.405 94.1331 21.66 94.1331 20.83ZM100.898 20.86C100.898 20.29 100.778 19.795 100.538 19.375C100.308 18.955 100.003 18.635 99.6231 18.415C99.2431 18.195 98.8331 18.085 98.3931 18.085C97.9531 18.085 97.5431 18.195 97.1631 18.415C96.7831 18.625 96.4731 18.94 96.2331 19.36C96.0031 19.77 95.8881 20.26 95.8881 20.83C95.8881 21.4 96.0031 21.9 96.2331 22.33C96.4731 22.76 96.7831 23.09 97.1631 23.32C97.5531 23.54 97.9631 23.65 98.3931 23.65C98.8331 23.65 99.2431 23.54 99.6231 23.32C100.003 23.1 100.308 22.78 100.538 22.36C100.778 21.93 100.898 21.43 100.898 20.86ZM110.476 17.965C110.766 17.565 111.161 17.24 111.661 16.99C112.171 16.73 112.736 16.6 113.356 16.6C114.086 16.6 114.746 16.775 115.336 17.125C115.926 17.475 116.391 17.975 116.731 18.625C117.071 19.265 117.241 20 117.241 20.83C117.241 21.66 117.071 22.405 116.731 23.065C116.391 23.715 115.921 24.225 115.321 24.595C114.731 24.955 114.076 25.135 113.356 25.135C112.716 25.135 112.146 25.01 111.646 24.76C111.156 24.51 110.766 24.19 110.476 23.8V25H108.766V13.9H110.476V17.965ZM115.501 20.83C115.501 20.26 115.381 19.77 115.141 19.36C114.911 18.94 114.601 18.625 114.211 18.415C113.831 18.195 113.421 18.085 112.981 18.085C112.551 18.085 112.141 18.195 111.751 18.415C111.371 18.635 111.061 18.955 110.821 19.375C110.591 19.795 110.476 20.29 110.476 20.86C110.476 21.43 110.591 21.93 110.821 22.36C111.061 22.78 111.371 23.1 111.751 23.32C112.141 23.54 112.551 23.65 112.981 23.65C113.421 23.65 113.831 23.54 114.211 23.32C114.601 23.09 114.911 22.76 115.141 22.33C115.381 21.9 115.501 21.4 115.501 20.83ZM126.372 16.735L121.302 28.885H119.532L121.212 24.865L117.957 16.735H119.862L122.187 23.035L124.602 16.735H126.372ZM137.844 22.87H133.479L132.729 25H130.944L134.679 14.56H136.659L140.394 25H138.594L137.844 22.87ZM137.364 21.475L135.669 16.63L133.959 21.475H137.364ZM143.728 14.575V25H142.018V14.575H143.728Z" fill="black"/>
<path d="M46.44 39L44.78 36.15H43.68V39H42.77V32.03H45.02C45.5467 32.03 45.99 32.12 46.35 32.3C46.7167 32.48 46.99 32.7233 47.17 33.03C47.35 33.3367 47.44 33.6867 47.44 34.08C47.44 34.56 47.3 34.9833 47.02 35.35C46.7467 35.7167 46.3333 35.96 45.78 36.08L47.53 39H46.44ZM43.68 35.42H45.02C45.5133 35.42 45.8833 35.3 46.13 35.06C46.3767 34.8133 46.5 34.4867 46.5 34.08C46.5 33.6667 46.3767 33.3467 46.13 33.12C45.89 32.8933 45.52 32.78 45.02 32.78H43.68V35.42ZM53.854 36.05C53.854 36.2233 53.844 36.4067 53.824 36.6H49.444C49.4773 37.14 49.6607 37.5633 49.994 37.87C50.334 38.17 50.744 38.32 51.224 38.32C51.6173 38.32 51.944 38.23 52.204 38.05C52.4707 37.8633 52.6573 37.6167 52.764 37.31H53.744C53.5973 37.8367 53.304 38.2667 52.864 38.6C52.424 38.9267 51.8773 39.09 51.224 39.09C50.704 39.09 50.2373 38.9733 49.824 38.74C49.4173 38.5067 49.0973 38.1767 48.864 37.75C48.6307 37.3167 48.514 36.8167 48.514 36.25C48.514 35.6833 48.6273 35.1867 48.854 34.76C49.0807 34.3333 49.3973 34.0067 49.804 33.78C50.2173 33.5467 50.6907 33.43 51.224 33.43C51.744 33.43 52.204 33.5433 52.604 33.77C53.004 33.9967 53.3107 34.31 53.524 34.71C53.744 35.1033 53.854 35.55 53.854 36.05ZM52.914 35.86C52.914 35.5133 52.8373 35.2167 52.684 34.97C52.5307 34.7167 52.3207 34.5267 52.054 34.4C51.794 34.2667 51.504 34.2 51.184 34.2C50.724 34.2 50.3307 34.3467 50.004 34.64C49.684 34.9333 49.5007 35.34 49.454 35.86H52.914ZM56.9952 39.09C56.5752 39.09 56.1985 39.02 55.8652 38.88C55.5318 38.7333 55.2685 38.5333 55.0752 38.28C54.8818 38.02 54.7752 37.7233 54.7552 37.39H55.6952C55.7218 37.6633 55.8485 37.8867 56.0752 38.06C56.3085 38.2333 56.6118 38.32 56.9852 38.32C57.3318 38.32 57.6052 38.2433 57.8052 38.09C58.0052 37.9367 58.1052 37.7433 58.1052 37.51C58.1052 37.27 57.9985 37.0933 57.7852 36.98C57.5718 36.86 57.2418 36.7433 56.7952 36.63C56.3885 36.5233 56.0552 36.4167 55.7952 36.31C55.5418 36.1967 55.3218 36.0333 55.1352 35.82C54.9552 35.6 54.8652 35.3133 54.8652 34.96C54.8652 34.68 54.9485 34.4233 55.1152 34.19C55.2818 33.9567 55.5185 33.7733 55.8252 33.64C56.1318 33.5 56.4818 33.43 56.8752 33.43C57.4818 33.43 57.9718 33.5833 58.3452 33.89C58.7185 34.1967 58.9185 34.6167 58.9452 35.15H58.0352C58.0152 34.8633 57.8985 34.6333 57.6852 34.46C57.4785 34.2867 57.1985 34.2 56.8452 34.2C56.5185 34.2 56.2585 34.27 56.0652 34.41C55.8718 34.55 55.7752 34.7333 55.7752 34.96C55.7752 35.14 55.8318 35.29 55.9452 35.41C56.0652 35.5233 56.2118 35.6167 56.3852 35.69C56.5652 35.7567 56.8118 35.8333 57.1252 35.92C57.5185 36.0267 57.8385 36.1333 58.0852 36.24C58.3318 36.34 58.5418 36.4933 58.7152 36.7C58.8952 36.9067 58.9885 37.1767 58.9952 37.51C58.9952 37.81 58.9118 38.08 58.7452 38.32C58.5785 38.56 58.3418 38.75 58.0352 38.89C57.7352 39.0233 57.3885 39.09 56.9952 39.09ZM65.2798 36.05C65.2798 36.2233 65.2698 36.4067 65.2498 36.6H60.8698C60.9031 37.14 61.0864 37.5633 61.4198 37.87C61.7598 38.17 62.1698 38.32 62.6498 38.32C63.0431 38.32 63.3698 38.23 63.6298 38.05C63.8964 37.8633 64.0831 37.6167 64.1898 37.31H65.1698C65.0231 37.8367 64.7298 38.2667 64.2898 38.6C63.8498 38.9267 63.3031 39.09 62.6498 39.09C62.1298 39.09 61.6631 38.9733 61.2498 38.74C60.8431 38.5067 60.5231 38.1767 60.2898 37.75C60.0564 37.3167 59.9398 36.8167 59.9398 36.25C59.9398 35.6833 60.0531 35.1867 60.2798 34.76C60.5064 34.3333 60.8231 34.0067 61.2298 33.78C61.6431 33.5467 62.1164 33.43 62.6498 33.43C63.1698 33.43 63.6298 33.5433 64.0298 33.77C64.4298 33.9967 64.7364 34.31 64.9498 34.71C65.1698 35.1033 65.2798 35.55 65.2798 36.05ZM64.3398 35.86C64.3398 35.5133 64.2631 35.2167 64.1098 34.97C63.9564 34.7167 63.7464 34.5267 63.4798 34.4C63.2198 34.2667 62.9298 34.2 62.6098 34.2C62.1498 34.2 61.7564 34.3467 61.4298 34.64C61.1098 34.9333 60.9264 35.34 60.8798 35.86H64.3398ZM66.1409 36.24C66.1409 35.68 66.2543 35.19 66.4809 34.77C66.7076 34.3433 67.0176 34.0133 67.4109 33.78C67.8109 33.5467 68.2543 33.43 68.7409 33.43C69.2209 33.43 69.6376 33.5333 69.9909 33.74C70.3443 33.9467 70.6076 34.2067 70.7809 34.52V33.52H71.7009V39H70.7809V37.98C70.6009 38.3 70.3309 38.5667 69.9709 38.78C69.6176 38.9867 69.2043 39.09 68.7309 39.09C68.2443 39.09 67.8043 38.97 67.4109 38.73C67.0176 38.49 66.7076 38.1533 66.4809 37.72C66.2543 37.2867 66.1409 36.7933 66.1409 36.24ZM70.7809 36.25C70.7809 35.8367 70.6976 35.4767 70.5309 35.17C70.3643 34.8633 70.1376 34.63 69.8509 34.47C69.5709 34.3033 69.2609 34.22 68.9209 34.22C68.5809 34.22 68.2709 34.3 67.9909 34.46C67.7109 34.62 67.4876 34.8533 67.3209 35.16C67.1543 35.4667 67.0709 35.8267 67.0709 36.24C67.0709 36.66 67.1543 37.0267 67.3209 37.34C67.4876 37.6467 67.7109 37.8833 67.9909 38.05C68.2709 38.21 68.5809 38.29 68.9209 38.29C69.2609 38.29 69.5709 38.21 69.8509 38.05C70.1376 37.8833 70.3643 37.6467 70.5309 37.34C70.6976 37.0267 70.7809 36.6633 70.7809 36.25ZM74.1488 34.41C74.3088 34.0967 74.5354 33.8533 74.8288 33.68C75.1288 33.5067 75.4921 33.42 75.9188 33.42V34.36H75.6788C74.6588 34.36 74.1488 34.9133 74.1488 36.02V39H73.2388V33.52H74.1488V34.41ZM76.6292 36.25C76.6292 35.6833 76.7426 35.19 76.9692 34.77C77.1959 34.3433 77.5092 34.0133 77.9092 33.78C78.3159 33.5467 78.7792 33.43 79.2992 33.43C79.9726 33.43 80.5259 33.5933 80.9592 33.92C81.3992 34.2467 81.6892 34.7 81.8292 35.28H80.8492C80.7559 34.9467 80.5726 34.6833 80.2992 34.49C80.0326 34.2967 79.6992 34.2 79.2992 34.2C78.7792 34.2 78.3592 34.38 78.0392 34.74C77.7192 35.0933 77.5592 35.5967 77.5592 36.25C77.5592 36.91 77.7192 37.42 78.0392 37.78C78.3592 38.14 78.7792 38.32 79.2992 38.32C79.6992 38.32 80.0326 38.2267 80.2992 38.04C80.5659 37.8533 80.7492 37.5867 80.8492 37.24H81.8292C81.6826 37.8 81.3892 38.25 80.9492 38.59C80.5092 38.9233 79.9592 39.09 79.2992 39.09C78.7792 39.09 78.3159 38.9733 77.9092 38.74C77.5092 38.5067 77.1959 38.1767 76.9692 37.75C76.7426 37.3233 76.6292 36.8233 76.6292 36.25ZM85.7634 33.42C86.1768 33.42 86.5501 33.51 86.8834 33.69C87.2168 33.8633 87.4768 34.1267 87.6634 34.48C87.8568 34.8333 87.9534 35.2633 87.9534 35.77V39H87.0534V35.9C87.0534 35.3533 86.9168 34.9367 86.6434 34.65C86.3701 34.3567 85.9968 34.21 85.5234 34.21C85.0434 34.21 84.6601 34.36 84.3734 34.66C84.0934 34.96 83.9534 35.3967 83.9534 35.97V39H83.0434V31.6H83.9534V34.3C84.1334 34.02 84.3801 33.8033 84.6934 33.65C85.0134 33.4967 85.3701 33.42 85.7634 33.42ZM95.5959 35.41C95.8493 35.45 96.0793 35.5533 96.2859 35.72C96.4993 35.8867 96.6659 36.0933 96.7859 36.34C96.9126 36.5867 96.9759 36.85 96.9759 37.13C96.9759 37.4833 96.8859 37.8033 96.7059 38.09C96.5259 38.37 96.2626 38.5933 95.9159 38.76C95.5759 38.92 95.1726 39 94.7059 39H92.1059V32.03H94.6059C95.0793 32.03 95.4826 32.11 95.8159 32.27C96.1493 32.4233 96.3993 32.6333 96.5659 32.9C96.7326 33.1667 96.8159 33.4667 96.8159 33.8C96.8159 34.2133 96.7026 34.5567 96.4759 34.83C96.2559 35.0967 95.9626 35.29 95.5959 35.41ZM93.0159 35.04H94.5459C94.9726 35.04 95.3026 34.94 95.5359 34.74C95.7693 34.54 95.8859 34.2633 95.8859 33.91C95.8859 33.5567 95.7693 33.28 95.5359 33.08C95.3026 32.88 94.9659 32.78 94.5259 32.78H93.0159V35.04ZM94.6259 38.25C95.0793 38.25 95.4326 38.1433 95.6859 37.93C95.9393 37.7167 96.0659 37.42 96.0659 37.04C96.0659 36.6533 95.9326 36.35 95.6659 36.13C95.3993 35.9033 95.0426 35.79 94.5959 35.79H93.0159V38.25H94.6259ZM97.8988 36.24C97.8988 35.68 98.0121 35.19 98.2388 34.77C98.4654 34.3433 98.7754 34.0133 99.1688 33.78C99.5688 33.5467 100.012 33.43 100.499 33.43C100.979 33.43 101.395 33.5333 101.749 33.74C102.102 33.9467 102.365 34.2067 102.539 34.52V33.52H103.459V39H102.539V37.98C102.359 38.3 102.089 38.5667 101.729 38.78C101.375 38.9867 100.962 39.09 100.489 39.09C100.002 39.09 99.5621 38.97 99.1688 38.73C98.7754 38.49 98.4654 38.1533 98.2388 37.72C98.0121 37.2867 97.8988 36.7933 97.8988 36.24ZM102.539 36.25C102.539 35.8367 102.455 35.4767 102.289 35.17C102.122 34.8633 101.895 34.63 101.609 34.47C101.329 34.3033 101.019 34.22 100.679 34.22C100.339 34.22 100.029 34.3 99.7488 34.46C99.4688 34.62 99.2454 34.8533 99.0788 35.16C98.9121 35.4667 98.8288 35.8267 98.8288 36.24C98.8288 36.66 98.9121 37.0267 99.0788 37.34C99.2454 37.6467 99.4688 37.8833 99.7488 38.05C100.029 38.21 100.339 38.29 100.679 38.29C101.019 38.29 101.329 38.21 101.609 38.05C101.895 37.8833 102.122 37.6467 102.289 37.34C102.455 37.0267 102.539 36.6633 102.539 36.25ZM106.937 39.09C106.517 39.09 106.14 39.02 105.807 38.88C105.473 38.7333 105.21 38.5333 105.017 38.28C104.823 38.02 104.717 37.7233 104.697 37.39H105.637C105.663 37.6633 105.79 37.8867 106.017 38.06C106.25 38.2333 106.553 38.32 106.927 38.32C107.273 38.32 107.547 38.2433 107.747 38.09C107.947 37.9367 108.047 37.7433 108.047 37.51C108.047 37.27 107.94 37.0933 107.727 36.98C107.513 36.86 107.183 36.7433 106.737 36.63C106.33 36.5233 105.997 36.4167 105.737 36.31C105.483 36.1967 105.263 36.0333 105.077 35.82C104.897 35.6 104.807 35.3133 104.807 34.96C104.807 34.68 104.89 34.4233 105.057 34.19C105.223 33.9567 105.46 33.7733 105.767 33.64C106.073 33.5 106.423 33.43 106.817 33.43C107.423 33.43 107.913 33.5833 108.287 33.89C108.66 34.1967 108.86 34.6167 108.887 35.15H107.977C107.957 34.8633 107.84 34.6333 107.627 34.46C107.42 34.2867 107.14 34.2 106.787 34.2C106.46 34.2 106.2 34.27 106.007 34.41C105.813 34.55 105.717 34.7333 105.717 34.96C105.717 35.14 105.773 35.29 105.887 35.41C106.007 35.5233 106.153 35.6167 106.327 35.69C106.507 35.7567 106.753 35.8333 107.067 35.92C107.46 36.0267 107.78 36.1333 108.027 36.24C108.273 36.34 108.483 36.4933 108.657 36.7C108.837 36.9067 108.93 37.1767 108.937 37.51C108.937 37.81 108.853 38.08 108.687 38.32C108.52 38.56 108.283 38.75 107.977 38.89C107.677 39.0233 107.33 39.09 106.937 39.09ZM115.221 36.05C115.221 36.2233 115.211 36.4067 115.191 36.6H110.811C110.845 37.14 111.028 37.5633 111.361 37.87C111.701 38.17 112.111 38.32 112.591 38.32C112.985 38.32 113.311 38.23 113.571 38.05C113.838 37.8633 114.025 37.6167 114.131 37.31H115.111C114.965 37.8367 114.671 38.2667 114.231 38.6C113.791 38.9267 113.245 39.09 112.591 39.09C112.071 39.09 111.605 38.9733 111.191 38.74C110.785 38.5067 110.465 38.1767 110.231 37.75C109.998 37.3167 109.881 36.8167 109.881 36.25C109.881 35.6833 109.995 35.1867 110.221 34.76C110.448 34.3333 110.765 34.0067 111.171 33.78C111.585 33.5467 112.058 33.43 112.591 33.43C113.111 33.43 113.571 33.5433 113.971 33.77C114.371 33.9967 114.678 34.31 114.891 34.71C115.111 35.1033 115.221 35.55 115.221 36.05ZM114.281 35.86C114.281 35.5133 114.205 35.2167 114.051 34.97C113.898 34.7167 113.688 34.5267 113.421 34.4C113.161 34.2667 112.871 34.2 112.551 34.2C112.091 34.2 111.698 34.3467 111.371 34.64C111.051 34.9333 110.868 35.34 110.821 35.86H114.281ZM116.082 36.24C116.082 35.68 116.196 35.19 116.422 34.77C116.649 34.3433 116.959 34.0133 117.352 33.78C117.752 33.5467 118.199 33.43 118.692 33.43C119.119 33.43 119.516 33.53 119.882 33.73C120.249 33.9233 120.529 34.18 120.722 34.5V31.6H121.642V39H120.722V37.97C120.542 38.2967 120.276 38.5667 119.922 38.78C119.569 38.9867 119.156 39.09 118.682 39.09C118.196 39.09 117.752 38.97 117.352 38.73C116.959 38.49 116.649 38.1533 116.422 37.72C116.196 37.2867 116.082 36.7933 116.082 36.24ZM120.722 36.25C120.722 35.8367 120.639 35.4767 120.472 35.17C120.306 34.8633 120.079 34.63 119.792 34.47C119.512 34.3033 119.202 34.22 118.862 34.22C118.522 34.22 118.212 34.3 117.932 34.46C117.652 34.62 117.429 34.8533 117.262 35.16C117.096 35.4667 117.012 35.8267 117.012 36.24C117.012 36.66 117.096 37.0267 117.262 37.34C117.429 37.6467 117.652 37.8833 117.932 38.05C118.212 38.21 118.522 38.29 118.862 38.29C119.202 38.29 119.512 38.21 119.792 38.05C120.079 37.8833 120.306 37.6467 120.472 37.34C120.639 37.0267 120.722 36.6633 120.722 36.25ZM125.506 35.51C125.506 34.83 125.66 34.22 125.966 33.68C126.273 33.1333 126.69 32.7067 127.216 32.4C127.75 32.0933 128.34 31.94 128.986 31.94C129.746 31.94 130.41 32.1233 130.976 32.49C131.543 32.8567 131.956 33.3767 132.216 34.05H131.126C130.933 33.63 130.653 33.3067 130.286 33.08C129.926 32.8533 129.493 32.74 128.986 32.74C128.5 32.74 128.063 32.8533 127.676 33.08C127.29 33.3067 126.986 33.63 126.766 34.05C126.546 34.4633 126.436 34.95 126.436 35.51C126.436 36.0633 126.546 36.55 126.766 36.97C126.986 37.3833 127.29 37.7033 127.676 37.93C128.063 38.1567 128.5 38.27 128.986 38.27C129.493 38.27 129.926 38.16 130.286 37.94C130.653 37.7133 130.933 37.39 131.126 36.97H132.216C131.956 37.6367 131.543 38.1533 130.976 38.52C130.41 38.88 129.746 39.06 128.986 39.06C128.34 39.06 127.75 38.91 127.216 38.61C126.69 38.3033 126.273 37.88 125.966 37.34C125.66 36.8 125.506 36.19 125.506 35.51ZM135.961 39.09C135.447 39.09 134.981 38.9733 134.561 38.74C134.147 38.5067 133.821 38.1767 133.581 37.75C133.347 37.3167 133.231 36.8167 133.231 36.25C133.231 35.69 133.351 35.1967 133.591 34.77C133.837 34.3367 134.171 34.0067 134.591 33.78C135.011 33.5467 135.481 33.43 136.001 33.43C136.521 33.43 136.991 33.5467 137.411 33.78C137.831 34.0067 138.161 34.3333 138.401 34.76C138.647 35.1867 138.771 35.6833 138.771 36.25C138.771 36.8167 138.644 37.3167 138.391 37.75C138.144 38.1767 137.807 38.5067 137.381 38.74C136.954 38.9733 136.481 39.09 135.961 39.09ZM135.961 38.29C136.287 38.29 136.594 38.2133 136.881 38.06C137.167 37.9067 137.397 37.6767 137.571 37.37C137.751 37.0633 137.841 36.69 137.841 36.25C137.841 35.81 137.754 35.4367 137.581 35.13C137.407 34.8233 137.181 34.5967 136.901 34.45C136.621 34.2967 136.317 34.22 135.991 34.22C135.657 34.22 135.351 34.2967 135.071 34.45C134.797 34.5967 134.577 34.8233 134.411 35.13C134.244 35.4367 134.161 35.81 134.161 36.25C134.161 36.6967 134.241 37.0733 134.401 37.38C134.567 37.6867 134.787 37.9167 135.061 38.07C135.334 38.2167 135.634 38.29 135.961 38.29ZM144.827 33.52V39H143.917V38.19C143.744 38.47 143.501 38.69 143.187 38.85C142.881 39.0033 142.541 39.08 142.167 39.08C141.741 39.08 141.357 38.9933 141.017 38.82C140.677 38.64 140.407 38.3733 140.207 38.02C140.014 37.6667 139.917 37.2367 139.917 36.73V33.52H140.817V36.61C140.817 37.15 140.954 37.5667 141.227 37.86C141.501 38.1467 141.874 38.29 142.347 38.29C142.834 38.29 143.217 38.14 143.497 37.84C143.777 37.54 143.917 37.1033 143.917 36.53V33.52H144.827ZM147.274 34.41C147.434 34.0967 147.66 33.8533 147.954 33.68C148.254 33.5067 148.617 33.42 149.044 33.42V34.36H148.804C147.784 34.36 147.274 34.9133 147.274 36.02V39H146.364V33.52H147.274V34.41ZM152.034 39.09C151.614 39.09 151.238 39.02 150.904 38.88C150.571 38.7333 150.308 38.5333 150.114 38.28C149.921 38.02 149.814 37.7233 149.794 37.39H150.734C150.761 37.6633 150.888 37.8867 151.114 38.06C151.348 38.2333 151.651 38.32 152.024 38.32C152.371 38.32 152.644 38.2433 152.844 38.09C153.044 37.9367 153.144 37.7433 153.144 37.51C153.144 37.27 153.038 37.0933 152.824 36.98C152.611 36.86 152.281 36.7433 151.834 36.63C151.428 36.5233 151.094 36.4167 150.834 36.31C150.581 36.1967 150.361 36.0333 150.174 35.82C149.994 35.6 149.904 35.3133 149.904 34.96C149.904 34.68 149.988 34.4233 150.154 34.19C150.321 33.9567 150.558 33.7733 150.864 33.64C151.171 33.5 151.521 33.43 151.914 33.43C152.521 33.43 153.011 33.5833 153.384 33.89C153.758 34.1967 153.958 34.6167 153.984 35.15H153.074C153.054 34.8633 152.938 34.6333 152.724 34.46C152.518 34.2867 152.238 34.2 151.884 34.2C151.558 34.2 151.298 34.27 151.104 34.41C150.911 34.55 150.814 34.7333 150.814 34.96C150.814 35.14 150.871 35.29 150.984 35.41C151.104 35.5233 151.251 35.6167 151.424 35.69C151.604 35.7567 151.851 35.8333 152.164 35.92C152.558 36.0267 152.878 36.1333 153.124 36.24C153.371 36.34 153.581 36.4933 153.754 36.7C153.934 36.9067 154.028 37.1767 154.034 37.51C154.034 37.81 153.951 38.08 153.784 38.32C153.618 38.56 153.381 38.75 153.074 38.89C152.774 39.0233 152.428 39.09 152.034 39.09ZM160.319 36.05C160.319 36.2233 160.309 36.4067 160.289 36.6H155.909C155.942 37.14 156.125 37.5633 156.459 37.87C156.799 38.17 157.209 38.32 157.689 38.32C158.082 38.32 158.409 38.23 158.669 38.05C158.935 37.8633 159.122 37.6167 159.229 37.31H160.209C160.062 37.8367 159.769 38.2667 159.329 38.6C158.889 38.9267 158.342 39.09 157.689 39.09C157.169 39.09 156.702 38.9733 156.289 38.74C155.882 38.5067 155.562 38.1767 155.329 37.75C155.095 37.3167 154.979 36.8167 154.979 36.25C154.979 35.6833 155.092 35.1867 155.319 34.76C155.545 34.3333 155.862 34.0067 156.269 33.78C156.682 33.5467 157.155 33.43 157.689 33.43C158.209 33.43 158.669 33.5433 159.069 33.77C159.469 33.9967 159.775 34.31 159.989 34.71C160.209 35.1033 160.319 35.55 160.319 36.05ZM159.379 35.86C159.379 35.5133 159.302 35.2167 159.149 34.97C158.995 34.7167 158.785 34.5267 158.519 34.4C158.259 34.2667 157.969 34.2 157.649 34.2C157.189 34.2 156.795 34.3467 156.469 34.64C156.149 34.9333 155.965 35.34 155.919 35.86H159.379Z" fill="black" fill-opacity="0.64"/>
</svg>
