<svg width="191" height="46" viewBox="0 0 191 46" fill="none" xmlns="http://www.w3.org/2000/svg">
<rect width="191" height="46" rx="23" fill="#D9FFD6"/>
<path d="M49.11 13.575L45.195 24H43.215L39.285 13.575H41.115L44.205 22.245L47.31 13.575H49.11ZM58.115 19.665C58.115 19.975 58.095 20.255 58.055 20.505H51.74C51.79 21.165 52.035 21.695 52.475 22.095C52.915 22.495 53.455 22.695 54.095 22.695C55.015 22.695 55.665 22.31 56.045 21.54H57.89C57.64 22.3 57.185 22.925 56.525 23.415C55.875 23.895 55.065 24.135 54.095 24.135C53.305 24.135 52.595 23.96 51.965 23.61C51.345 23.25 50.855 22.75 50.495 22.11C50.145 21.46 49.97 20.71 49.97 19.86C49.97 19.01 50.14 18.265 50.48 17.625C50.83 16.975 51.315 16.475 51.935 16.125C52.565 15.775 53.285 15.6 54.095 15.6C54.875 15.6 55.57 15.77 56.18 16.11C56.79 16.45 57.265 16.93 57.605 17.55C57.945 18.16 58.115 18.865 58.115 19.665ZM56.33 19.125C56.32 18.495 56.095 17.99 55.655 17.61C55.215 17.23 54.67 17.04 54.02 17.04C53.43 17.04 52.925 17.23 52.505 17.61C52.085 17.98 51.835 18.485 51.755 19.125H56.33ZM61.5079 16.935C61.7579 16.515 62.0879 16.19 62.4979 15.96C62.9179 15.72 63.4129 15.6 63.9829 15.6V17.37H63.5479C62.8779 17.37 62.3679 17.54 62.0179 17.88C61.6779 18.22 61.5079 18.81 61.5079 19.65V24H59.7979V15.735H61.5079V16.935ZM66.4247 14.64C66.1147 14.64 65.8547 14.535 65.6447 14.325C65.4347 14.115 65.3297 13.855 65.3297 13.545C65.3297 13.235 65.4347 12.975 65.6447 12.765C65.8547 12.555 66.1147 12.45 66.4247 12.45C66.7247 12.45 66.9797 12.555 67.1897 12.765C67.3997 12.975 67.5047 13.235 67.5047 13.545C67.5047 13.855 67.3997 14.115 67.1897 14.325C66.9797 14.535 66.7247 14.64 66.4247 14.64ZM67.2647 15.735V24H65.5547V15.735H67.2647ZM72.9748 17.13H71.4448V24H69.7198V17.13H68.7448V15.735H69.7198V15.15C69.7198 14.2 69.9698 13.51 70.4698 13.08C70.9798 12.64 71.7748 12.42 72.8548 12.42V13.845C72.3348 13.845 71.9698 13.945 71.7598 14.145C71.5498 14.335 71.4448 14.67 71.4448 15.15V15.735H72.9748V17.13ZM75.3602 14.64C75.0502 14.64 74.7902 14.535 74.5802 14.325C74.3702 14.115 74.2652 13.855 74.2652 13.545C74.2652 13.235 74.3702 12.975 74.5802 12.765C74.7902 12.555 75.0502 12.45 75.3602 12.45C75.6602 12.45 75.9152 12.555 76.1252 12.765C76.3352 12.975 76.4402 13.235 76.4402 13.545C76.4402 13.855 76.3352 14.115 76.1252 14.325C75.9152 14.535 75.6602 14.64 75.3602 14.64ZM76.2002 15.735V24H74.4902V15.735H76.2002ZM86.0203 19.665C86.0203 19.975 86.0003 20.255 85.9603 20.505H79.6453C79.6953 21.165 79.9403 21.695 80.3803 22.095C80.8203 22.495 81.3603 22.695 82.0003 22.695C82.9203 22.695 83.5703 22.31 83.9503 21.54H85.7953C85.5453 22.3 85.0903 22.925 84.4303 23.415C83.7803 23.895 82.9703 24.135 82.0003 24.135C81.2103 24.135 80.5003 23.96 79.8703 23.61C79.2503 23.25 78.7603 22.75 78.4003 22.11C78.0503 21.46 77.8753 20.71 77.8753 19.86C77.8753 19.01 78.0453 18.265 78.3853 17.625C78.7353 16.975 79.2203 16.475 79.8403 16.125C80.4703 15.775 81.1903 15.6 82.0003 15.6C82.7803 15.6 83.4753 15.77 84.0853 16.11C84.6953 16.45 85.1703 16.93 85.5103 17.55C85.8503 18.16 86.0203 18.865 86.0203 19.665ZM84.2353 19.125C84.2253 18.495 84.0003 17.99 83.5603 17.61C83.1203 17.23 82.5753 17.04 81.9253 17.04C81.3353 17.04 80.8303 17.23 80.4103 17.61C79.9903 17.98 79.7403 18.485 79.6603 19.125H84.2353ZM87.1331 19.83C87.1331 19 87.3031 18.265 87.6431 17.625C87.9931 16.985 88.4631 16.49 89.0531 16.14C89.6531 15.78 90.3181 15.6 91.0481 15.6C91.5881 15.6 92.1181 15.72 92.6381 15.96C93.1681 16.19 93.5881 16.5 93.8981 16.89V12.9H95.6231V24H93.8981V22.755C93.6181 23.155 93.2281 23.485 92.7281 23.745C92.2381 24.005 91.6731 24.135 91.0331 24.135C90.3131 24.135 89.6531 23.955 89.0531 23.595C88.4631 23.225 87.9931 22.715 87.6431 22.065C87.3031 21.405 87.1331 20.66 87.1331 19.83ZM93.8981 19.86C93.8981 19.29 93.7781 18.795 93.5381 18.375C93.3081 17.955 93.0031 17.635 92.6231 17.415C92.2431 17.195 91.8331 17.085 91.3931 17.085C90.9531 17.085 90.5431 17.195 90.1631 17.415C89.7831 17.625 89.4731 17.94 89.2331 18.36C89.0031 18.77 88.8881 19.26 88.8881 19.83C88.8881 20.4 89.0031 20.9 89.2331 21.33C89.4731 21.76 89.7831 22.09 90.1631 22.32C90.5531 22.54 90.9631 22.65 91.3931 22.65C91.8331 22.65 92.2431 22.54 92.6231 22.32C93.0031 22.1 93.3081 21.78 93.5381 21.36C93.7781 20.93 93.8981 20.43 93.8981 19.86ZM112.866 15.735L110.301 24H108.501L106.836 17.895L105.171 24H103.371L100.791 15.735H102.531L104.256 22.38L106.011 15.735H107.796L109.476 22.35L111.186 15.735H112.866ZM115.014 14.64C114.704 14.64 114.444 14.535 114.234 14.325C114.024 14.115 113.919 13.855 113.919 13.545C113.919 13.235 114.024 12.975 114.234 12.765C114.444 12.555 114.704 12.45 115.014 12.45C115.314 12.45 115.569 12.555 115.779 12.765C115.989 12.975 116.094 13.235 116.094 13.545C116.094 13.855 115.989 14.115 115.779 14.325C115.569 14.535 115.314 14.64 115.014 14.64ZM115.854 15.735V24H114.144V15.735H115.854ZM120.094 17.13V21.705C120.094 22.015 120.164 22.24 120.304 22.38C120.454 22.51 120.704 22.575 121.054 22.575H122.104V24H120.754C119.984 24 119.394 23.82 118.984 23.46C118.574 23.1 118.369 22.515 118.369 21.705V17.13H117.394V15.735H118.369V13.68H120.094V15.735H122.104V17.13H120.094ZM127.955 15.6C128.585 15.6 129.145 15.735 129.635 16.005C130.135 16.275 130.525 16.675 130.805 17.205C131.095 17.735 131.24 18.375 131.24 19.125V24H129.545V19.38C129.545 18.64 129.36 18.075 128.99 17.685C128.62 17.285 128.115 17.085 127.475 17.085C126.835 17.085 126.325 17.285 125.945 17.685C125.575 18.075 125.39 18.64 125.39 19.38V24H123.68V12.9H125.39V16.695C125.68 16.345 126.045 16.075 126.485 15.885C126.935 15.695 127.425 15.6 127.955 15.6ZM143.602 21.87H139.237L138.487 24H136.702L140.437 13.56H142.417L146.152 24H144.352L143.602 21.87ZM143.122 20.475L141.427 15.63L139.717 20.475H143.122ZM149.486 13.575V24H147.776V13.575H149.486Z" fill="black"/>
<path d="M43.996 37L42.502 34.435H41.512V37H40.693V30.727H42.718C43.192 30.727 43.591 30.808 43.915 30.97C44.245 31.132 44.491 31.351 44.653 31.627C44.815 31.903 44.896 32.218 44.896 32.572C44.896 33.004 44.77 33.385 44.518 33.715C44.272 34.045 43.9 34.264 43.402 34.372L44.977 37H43.996ZM41.512 33.778H42.718C43.162 33.778 43.495 33.67 43.717 33.454C43.939 33.232 44.05 32.938 44.05 32.572C44.05 32.2 43.939 31.912 43.717 31.708C43.501 31.504 43.168 31.402 42.718 31.402H41.512V33.778ZM50.6686 34.345C50.6686 34.501 50.6596 34.666 50.6416 34.84H46.6996C46.7296 35.326 46.8946 35.707 47.1946 35.983C47.5006 36.253 47.8696 36.388 48.3016 36.388C48.6556 36.388 48.9496 36.307 49.1836 36.145C49.4236 35.977 49.5916 35.755 49.6876 35.479H50.5696C50.4376 35.953 50.1736 36.34 49.7776 36.64C49.3816 36.934 48.8896 37.081 48.3016 37.081C47.8336 37.081 47.4136 36.976 47.0416 36.766C46.6756 36.556 46.3876 36.259 46.1776 35.875C45.9676 35.485 45.8626 35.035 45.8626 34.525C45.8626 34.015 45.9646 33.568 46.1686 33.184C46.3726 32.8 46.6576 32.506 47.0236 32.302C47.3956 32.092 47.8216 31.987 48.3016 31.987C48.7696 31.987 49.1836 32.089 49.5436 32.293C49.9036 32.497 50.1796 32.779 50.3716 33.139C50.5696 33.493 50.6686 33.895 50.6686 34.345ZM49.8226 34.174C49.8226 33.862 49.7536 33.595 49.6156 33.373C49.4776 33.145 49.2886 32.974 49.0486 32.86C48.8146 32.74 48.5536 32.68 48.2656 32.68C47.8516 32.68 47.4976 32.812 47.2036 33.076C46.9156 33.34 46.7506 33.706 46.7086 34.174H49.8226ZM53.4956 37.081C53.1176 37.081 52.7786 37.018 52.4786 36.892C52.1786 36.76 51.9416 36.58 51.7676 36.352C51.5936 36.118 51.4976 35.851 51.4796 35.551H52.3256C52.3496 35.797 52.4636 35.998 52.6676 36.154C52.8776 36.31 53.1506 36.388 53.4866 36.388C53.7986 36.388 54.0446 36.319 54.2246 36.181C54.4046 36.043 54.4946 35.869 54.4946 35.659C54.4946 35.443 54.3986 35.284 54.2066 35.182C54.0146 35.074 53.7176 34.969 53.3156 34.867C52.9496 34.771 52.6496 34.675 52.4156 34.579C52.1876 34.477 51.9896 34.33 51.8216 34.138C51.6596 33.94 51.5786 33.682 51.5786 33.364C51.5786 33.112 51.6536 32.881 51.8036 32.671C51.9536 32.461 52.1666 32.296 52.4426 32.176C52.7186 32.05 53.0336 31.987 53.3876 31.987C53.9336 31.987 54.3746 32.125 54.7106 32.401C55.0466 32.677 55.2266 33.055 55.2506 33.535H54.4316C54.4136 33.277 54.3086 33.07 54.1166 32.914C53.9306 32.758 53.6786 32.68 53.3606 32.68C53.0666 32.68 52.8326 32.743 52.6586 32.869C52.4846 32.995 52.3976 33.16 52.3976 33.364C52.3976 33.526 52.4486 33.661 52.5506 33.769C52.6586 33.871 52.7906 33.955 52.9466 34.021C53.1086 34.081 53.3306 34.15 53.6126 34.228C53.9666 34.324 54.2546 34.42 54.4766 34.516C54.6986 34.606 54.8876 34.744 55.0436 34.93C55.2056 35.116 55.2896 35.359 55.2956 35.659C55.2956 35.929 55.2206 36.172 55.0706 36.388C54.9206 36.604 54.7076 36.775 54.4316 36.901C54.1616 37.021 53.8496 37.081 53.4956 37.081ZM60.9518 34.345C60.9518 34.501 60.9428 34.666 60.9248 34.84H56.9828C57.0128 35.326 57.1778 35.707 57.4778 35.983C57.7838 36.253 58.1528 36.388 58.5848 36.388C58.9388 36.388 59.2328 36.307 59.4668 36.145C59.7068 35.977 59.8748 35.755 59.9708 35.479H60.8528C60.7208 35.953 60.4568 36.34 60.0608 36.64C59.6648 36.934 59.1728 37.081 58.5848 37.081C58.1168 37.081 57.6968 36.976 57.3248 36.766C56.9588 36.556 56.6708 36.259 56.4608 35.875C56.2508 35.485 56.1458 35.035 56.1458 34.525C56.1458 34.015 56.2478 33.568 56.4518 33.184C56.6558 32.8 56.9408 32.506 57.3068 32.302C57.6788 32.092 58.1048 31.987 58.5848 31.987C59.0528 31.987 59.4668 32.089 59.8268 32.293C60.1868 32.497 60.4628 32.779 60.6548 33.139C60.8528 33.493 60.9518 33.895 60.9518 34.345ZM60.1058 34.174C60.1058 33.862 60.0368 33.595 59.8988 33.373C59.7608 33.145 59.5718 32.974 59.3318 32.86C59.0978 32.74 58.8368 32.68 58.5488 32.68C58.1348 32.68 57.7808 32.812 57.4868 33.076C57.1988 33.34 57.0338 33.706 56.9918 34.174H60.1058ZM61.7268 34.516C61.7268 34.012 61.8288 33.571 62.0328 33.193C62.2368 32.809 62.5158 32.512 62.8698 32.302C63.2298 32.092 63.6288 31.987 64.0668 31.987C64.4988 31.987 64.8738 32.08 65.1918 32.266C65.5098 32.452 65.7468 32.686 65.9028 32.968V32.068H66.7308V37H65.9028V36.082C65.7408 36.37 65.4978 36.61 65.1738 36.802C64.8558 36.988 64.4838 37.081 64.0578 37.081C63.6198 37.081 63.2238 36.973 62.8698 36.757C62.5158 36.541 62.2368 36.238 62.0328 35.848C61.8288 35.458 61.7268 35.014 61.7268 34.516ZM65.9028 34.525C65.9028 34.153 65.8278 33.829 65.6778 33.553C65.5278 33.277 65.3238 33.067 65.0658 32.923C64.8138 32.773 64.5348 32.698 64.2288 32.698C63.9228 32.698 63.6438 32.77 63.3918 32.914C63.1398 33.058 62.9388 33.268 62.7888 33.544C62.6388 33.82 62.5638 34.144 62.5638 34.516C62.5638 34.894 62.6388 35.224 62.7888 35.506C62.9388 35.782 63.1398 35.995 63.3918 36.145C63.6438 36.289 63.9228 36.361 64.2288 36.361C64.5348 36.361 64.8138 36.289 65.0658 36.145C65.3238 35.995 65.5278 35.782 65.6778 35.506C65.8278 35.224 65.9028 34.897 65.9028 34.525ZM68.9339 32.869C69.0779 32.587 69.2819 32.368 69.5459 32.212C69.8159 32.056 70.1429 31.978 70.5269 31.978V32.824H70.3109C69.3929 32.824 68.9339 33.322 68.9339 34.318V37H68.1149V32.068H68.9339V32.869ZM71.1663 34.525C71.1663 34.015 71.2683 33.571 71.4723 33.193C71.6763 32.809 71.9583 32.512 72.3183 32.302C72.6843 32.092 73.1013 31.987 73.5693 31.987C74.1753 31.987 74.6733 32.134 75.0633 32.428C75.4593 32.722 75.7203 33.13 75.8463 33.652H74.9643C74.8803 33.352 74.7153 33.115 74.4693 32.941C74.2293 32.767 73.9293 32.68 73.5693 32.68C73.1013 32.68 72.7233 32.842 72.4353 33.166C72.1473 33.484 72.0033 33.937 72.0033 34.525C72.0033 35.119 72.1473 35.578 72.4353 35.902C72.7233 36.226 73.1013 36.388 73.5693 36.388C73.9293 36.388 74.2293 36.304 74.4693 36.136C74.7093 35.968 74.8743 35.728 74.9643 35.416H75.8463C75.7143 35.92 75.4503 36.325 75.0543 36.631C74.6583 36.931 74.1633 37.081 73.5693 37.081C73.1013 37.081 72.6843 36.976 72.3183 36.766C71.9583 36.556 71.6763 36.259 71.4723 35.875C71.2683 35.491 71.1663 35.041 71.1663 34.525ZM79.3871 31.978C79.7591 31.978 80.0951 32.059 80.3951 32.221C80.6951 32.377 80.9291 32.614 81.0971 32.932C81.2711 33.25 81.3581 33.637 81.3581 34.093V37H80.5481V34.21C80.5481 33.718 80.4251 33.343 80.1791 33.085C79.9331 32.821 79.5971 32.689 79.1711 32.689C78.7391 32.689 78.3941 32.824 78.1361 33.094C77.8841 33.364 77.7581 33.757 77.7581 34.273V37H76.9391V30.34H77.7581V32.77C77.9201 32.518 78.1421 32.323 78.4241 32.185C78.7121 32.047 79.0331 31.978 79.3871 31.978ZM88.2363 33.769C88.4643 33.805 88.6713 33.898 88.8573 34.048C89.0493 34.198 89.1993 34.384 89.3073 34.606C89.4213 34.828 89.4783 35.065 89.4783 35.317C89.4783 35.635 89.3973 35.923 89.2353 36.181C89.0733 36.433 88.8363 36.634 88.5243 36.784C88.2183 36.928 87.8553 37 87.4353 37H85.0953V30.727H87.3453C87.7713 30.727 88.1343 30.799 88.4343 30.943C88.7343 31.081 88.9593 31.27 89.1093 31.51C89.2593 31.75 89.3343 32.02 89.3343 32.32C89.3343 32.692 89.2323 33.001 89.0283 33.247C88.8303 33.487 88.5663 33.661 88.2363 33.769ZM85.9143 33.436H87.2913C87.6753 33.436 87.9723 33.346 88.1823 33.166C88.3923 32.986 88.4973 32.737 88.4973 32.419C88.4973 32.101 88.3923 31.852 88.1823 31.672C87.9723 31.492 87.6693 31.402 87.2733 31.402H85.9143V33.436ZM87.3633 36.325C87.7713 36.325 88.0893 36.229 88.3173 36.037C88.5453 35.845 88.6593 35.578 88.6593 35.236C88.6593 34.888 88.5393 34.615 88.2993 34.417C88.0593 34.213 87.7383 34.111 87.3363 34.111H85.9143V36.325H87.3633ZM90.3089 34.516C90.3089 34.012 90.4109 33.571 90.6149 33.193C90.8189 32.809 91.0979 32.512 91.4519 32.302C91.8119 32.092 92.2109 31.987 92.6489 31.987C93.0809 31.987 93.4559 32.08 93.7739 32.266C94.0919 32.452 94.3289 32.686 94.4849 32.968V32.068H95.3129V37H94.4849V36.082C94.3229 36.37 94.0799 36.61 93.7559 36.802C93.4379 36.988 93.0659 37.081 92.6399 37.081C92.2019 37.081 91.8059 36.973 91.4519 36.757C91.0979 36.541 90.8189 36.238 90.6149 35.848C90.4109 35.458 90.3089 35.014 90.3089 34.516ZM94.4849 34.525C94.4849 34.153 94.4099 33.829 94.2599 33.553C94.1099 33.277 93.9059 33.067 93.6479 32.923C93.3959 32.773 93.1169 32.698 92.8109 32.698C92.5049 32.698 92.2259 32.77 91.9739 32.914C91.7219 33.058 91.5209 33.268 91.3709 33.544C91.2209 33.82 91.1459 34.144 91.1459 34.516C91.1459 34.894 91.2209 35.224 91.3709 35.506C91.5209 35.782 91.7219 35.995 91.9739 36.145C92.2259 36.289 92.5049 36.361 92.8109 36.361C93.1169 36.361 93.3959 36.289 93.6479 36.145C93.9059 35.995 94.1099 35.782 94.2599 35.506C94.4099 35.224 94.4849 34.897 94.4849 34.525ZM98.4429 37.081C98.0649 37.081 97.7259 37.018 97.4259 36.892C97.1259 36.76 96.8889 36.58 96.7149 36.352C96.5409 36.118 96.4449 35.851 96.4269 35.551H97.2729C97.2969 35.797 97.4109 35.998 97.6149 36.154C97.8249 36.31 98.0979 36.388 98.4339 36.388C98.7459 36.388 98.9919 36.319 99.1719 36.181C99.3519 36.043 99.4419 35.869 99.4419 35.659C99.4419 35.443 99.3459 35.284 99.1539 35.182C98.9619 35.074 98.6649 34.969 98.2629 34.867C97.8969 34.771 97.5969 34.675 97.3629 34.579C97.1349 34.477 96.9369 34.33 96.7689 34.138C96.6069 33.94 96.5259 33.682 96.5259 33.364C96.5259 33.112 96.6009 32.881 96.7509 32.671C96.9009 32.461 97.1139 32.296 97.3899 32.176C97.6659 32.05 97.9809 31.987 98.3349 31.987C98.8809 31.987 99.3219 32.125 99.6579 32.401C99.9939 32.677 100.174 33.055 100.198 33.535H99.3789C99.3609 33.277 99.2559 33.07 99.0639 32.914C98.8779 32.758 98.6259 32.68 98.3079 32.68C98.0139 32.68 97.7799 32.743 97.6059 32.869C97.4319 32.995 97.3449 33.16 97.3449 33.364C97.3449 33.526 97.3959 33.661 97.4979 33.769C97.6059 33.871 97.7379 33.955 97.8939 34.021C98.0559 34.081 98.2779 34.15 98.5599 34.228C98.9139 34.324 99.2019 34.42 99.4239 34.516C99.6459 34.606 99.8349 34.744 99.9909 34.93C100.153 35.116 100.237 35.359 100.243 35.659C100.243 35.929 100.168 36.172 100.018 36.388C99.8679 36.604 99.6549 36.775 99.3789 36.901C99.1089 37.021 98.7969 37.081 98.4429 37.081ZM105.899 34.345C105.899 34.501 105.89 34.666 105.872 34.84H101.93C101.96 35.326 102.125 35.707 102.425 35.983C102.731 36.253 103.1 36.388 103.532 36.388C103.886 36.388 104.18 36.307 104.414 36.145C104.654 35.977 104.822 35.755 104.918 35.479H105.8C105.668 35.953 105.404 36.34 105.008 36.64C104.612 36.934 104.12 37.081 103.532 37.081C103.064 37.081 102.644 36.976 102.272 36.766C101.906 36.556 101.618 36.259 101.408 35.875C101.198 35.485 101.093 35.035 101.093 34.525C101.093 34.015 101.195 33.568 101.399 33.184C101.603 32.8 101.888 32.506 102.254 32.302C102.626 32.092 103.052 31.987 103.532 31.987C104 31.987 104.414 32.089 104.774 32.293C105.134 32.497 105.41 32.779 105.602 33.139C105.8 33.493 105.899 33.895 105.899 34.345ZM105.053 34.174C105.053 33.862 104.984 33.595 104.846 33.373C104.708 33.145 104.519 32.974 104.279 32.86C104.045 32.74 103.784 32.68 103.496 32.68C103.082 32.68 102.728 32.812 102.434 33.076C102.146 33.34 101.981 33.706 101.939 34.174H105.053ZM106.674 34.516C106.674 34.012 106.776 33.571 106.98 33.193C107.184 32.809 107.463 32.512 107.817 32.302C108.177 32.092 108.579 31.987 109.023 31.987C109.407 31.987 109.764 32.077 110.094 32.257C110.424 32.431 110.676 32.662 110.85 32.95V30.34H111.678V37H110.85V36.073C110.688 36.367 110.448 36.61 110.13 36.802C109.812 36.988 109.44 37.081 109.014 37.081C108.576 37.081 108.177 36.973 107.817 36.757C107.463 36.541 107.184 36.238 106.98 35.848C106.776 35.458 106.674 35.014 106.674 34.516ZM110.85 34.525C110.85 34.153 110.775 33.829 110.625 33.553C110.475 33.277 110.271 33.067 110.013 32.923C109.761 32.773 109.482 32.698 109.176 32.698C108.87 32.698 108.591 32.77 108.339 32.914C108.087 33.058 107.886 33.268 107.736 33.544C107.586 33.82 107.511 34.144 107.511 34.516C107.511 34.894 107.586 35.224 107.736 35.506C107.886 35.782 108.087 35.995 108.339 36.145C108.591 36.289 108.87 36.361 109.176 36.361C109.482 36.361 109.761 36.289 110.013 36.145C110.271 35.995 110.475 35.782 110.625 35.506C110.775 35.224 110.85 34.897 110.85 34.525ZM115.156 33.859C115.156 33.247 115.294 32.698 115.57 32.212C115.846 31.72 116.221 31.336 116.695 31.06C117.175 30.784 117.706 30.646 118.288 30.646C118.972 30.646 119.569 30.811 120.079 31.141C120.589 31.471 120.961 31.939 121.195 32.545H120.214C120.04 32.167 119.788 31.876 119.458 31.672C119.134 31.468 118.744 31.366 118.288 31.366C117.85 31.366 117.457 31.468 117.109 31.672C116.761 31.876 116.488 32.167 116.29 32.545C116.092 32.917 115.993 33.355 115.993 33.859C115.993 34.357 116.092 34.795 116.29 35.173C116.488 35.545 116.761 35.833 117.109 36.037C117.457 36.241 117.85 36.343 118.288 36.343C118.744 36.343 119.134 36.244 119.458 36.046C119.788 35.842 120.04 35.551 120.214 35.173H121.195C120.961 35.773 120.589 36.238 120.079 36.568C119.569 36.892 118.972 37.054 118.288 37.054C117.706 37.054 117.175 36.919 116.695 36.649C116.221 36.373 115.846 35.992 115.57 35.506C115.294 35.02 115.156 34.471 115.156 33.859ZM124.565 37.081C124.103 37.081 123.683 36.976 123.305 36.766C122.933 36.556 122.639 36.259 122.423 35.875C122.213 35.485 122.108 35.035 122.108 34.525C122.108 34.021 122.216 33.577 122.432 33.193C122.654 32.803 122.954 32.506 123.332 32.302C123.71 32.092 124.133 31.987 124.601 31.987C125.069 31.987 125.492 32.092 125.87 32.302C126.248 32.506 126.545 32.8 126.761 33.184C126.983 33.568 127.094 34.015 127.094 34.525C127.094 35.035 126.98 35.485 126.752 35.875C126.53 36.259 126.227 36.556 125.843 36.766C125.459 36.976 125.033 37.081 124.565 37.081ZM124.565 36.361C124.859 36.361 125.135 36.292 125.393 36.154C125.651 36.016 125.858 35.809 126.014 35.533C126.176 35.257 126.257 34.921 126.257 34.525C126.257 34.129 126.179 33.793 126.023 33.517C125.867 33.241 125.663 33.037 125.411 32.905C125.159 32.767 124.886 32.698 124.592 32.698C124.292 32.698 124.016 32.767 123.764 32.905C123.518 33.037 123.32 33.241 123.17 33.517C123.02 33.793 122.945 34.129 122.945 34.525C122.945 34.927 123.017 35.266 123.161 35.542C123.311 35.818 123.509 36.025 123.755 36.163C124.001 36.295 124.271 36.361 124.565 36.361ZM132.545 32.068V37H131.726V36.271C131.57 36.523 131.351 36.721 131.069 36.865C130.793 37.003 130.487 37.072 130.151 37.072C129.767 37.072 129.422 36.994 129.116 36.838C128.81 36.676 128.567 36.436 128.387 36.118C128.213 35.8 128.126 35.413 128.126 34.957V32.068H128.936V34.849C128.936 35.335 129.059 35.71 129.305 35.974C129.551 36.232 129.887 36.361 130.313 36.361C130.751 36.361 131.096 36.226 131.348 35.956C131.6 35.686 131.726 35.293 131.726 34.777V32.068H132.545ZM134.746 32.869C134.89 32.587 135.094 32.368 135.358 32.212C135.628 32.056 135.955 31.978 136.339 31.978V32.824H136.123C135.205 32.824 134.746 33.322 134.746 34.318V37H133.927V32.068H134.746V32.869ZM139.031 37.081C138.653 37.081 138.314 37.018 138.014 36.892C137.714 36.76 137.477 36.58 137.303 36.352C137.129 36.118 137.033 35.851 137.015 35.551H137.861C137.885 35.797 137.999 35.998 138.203 36.154C138.413 36.31 138.686 36.388 139.022 36.388C139.334 36.388 139.58 36.319 139.76 36.181C139.94 36.043 140.03 35.869 140.03 35.659C140.03 35.443 139.934 35.284 139.742 35.182C139.55 35.074 139.253 34.969 138.851 34.867C138.485 34.771 138.185 34.675 137.951 34.579C137.723 34.477 137.525 34.33 137.357 34.138C137.195 33.94 137.114 33.682 137.114 33.364C137.114 33.112 137.189 32.881 137.339 32.671C137.489 32.461 137.702 32.296 137.978 32.176C138.254 32.05 138.569 31.987 138.923 31.987C139.469 31.987 139.91 32.125 140.246 32.401C140.582 32.677 140.762 33.055 140.786 33.535H139.967C139.949 33.277 139.844 33.07 139.652 32.914C139.466 32.758 139.214 32.68 138.896 32.68C138.602 32.68 138.368 32.743 138.194 32.869C138.02 32.995 137.933 33.16 137.933 33.364C137.933 33.526 137.984 33.661 138.086 33.769C138.194 33.871 138.326 33.955 138.482 34.021C138.644 34.081 138.866 34.15 139.148 34.228C139.502 34.324 139.79 34.42 140.012 34.516C140.234 34.606 140.423 34.744 140.579 34.93C140.741 35.116 140.825 35.359 140.831 35.659C140.831 35.929 140.756 36.172 140.606 36.388C140.456 36.604 140.243 36.775 139.967 36.901C139.697 37.021 139.385 37.081 139.031 37.081ZM146.487 34.345C146.487 34.501 146.478 34.666 146.46 34.84H142.518C142.548 35.326 142.713 35.707 143.013 35.983C143.319 36.253 143.688 36.388 144.12 36.388C144.474 36.388 144.768 36.307 145.002 36.145C145.242 35.977 145.41 35.755 145.506 35.479H146.388C146.256 35.953 145.992 36.34 145.596 36.64C145.2 36.934 144.708 37.081 144.12 37.081C143.652 37.081 143.232 36.976 142.86 36.766C142.494 36.556 142.206 36.259 141.996 35.875C141.786 35.485 141.681 35.035 141.681 34.525C141.681 34.015 141.783 33.568 141.987 33.184C142.191 32.8 142.476 32.506 142.842 32.302C143.214 32.092 143.64 31.987 144.12 31.987C144.588 31.987 145.002 32.089 145.362 32.293C145.722 32.497 145.998 32.779 146.19 33.139C146.388 33.493 146.487 33.895 146.487 34.345ZM145.641 34.174C145.641 33.862 145.572 33.595 145.434 33.373C145.296 33.145 145.107 32.974 144.867 32.86C144.633 32.74 144.372 32.68 144.084 32.68C143.67 32.68 143.316 32.812 143.022 33.076C142.734 33.34 142.569 33.706 142.527 34.174H145.641Z" fill="black" fill-opacity="0.64"/>
</svg>
