<svg width="1040" height="720" viewBox="0 0 1040 720" fill="none" xmlns="http://www.w3.org/2000/svg">
<path d="M43.6041 397.888C22.4501 382.729 22.4501 351.271 43.6041 336.112L366.366 104.819C391.512 86.7997 426.501 104.772 426.501 135.707L426.501 598.293C426.501 629.228 391.512 647.2 366.366 629.181L43.6041 397.888Z" fill="url(#paint0_linear_489_52)"/>
<path d="M292.103 398.388C270.949 383.229 270.949 351.771 292.103 336.612L614.865 105.319C640.011 87.2997 675 105.272 675 136.207L675 598.793C675 629.728 640.011 647.7 614.865 629.681L292.103 398.388Z" fill="url(#paint1_linear_489_52)"/>
<path d="M515.103 383.388C493.949 368.229 493.949 336.771 515.103 321.612L837.865 90.3188C863.011 72.2997 898 90.2719 898 121.207L898 583.793C898 614.728 863.011 632.7 837.865 614.681L515.103 383.388Z" fill="url(#paint2_linear_489_52)"/>
<defs>
<linearGradient id="paint0_linear_489_52" x1="436" y1="367" x2="26.5" y2="367" gradientUnits="userSpaceOnUse">
<stop stop-color="#F4F4F4" stop-opacity="0"/>
<stop offset="1" stop-color="#737373" stop-opacity="0.72"/>
</linearGradient>
<linearGradient id="paint1_linear_489_52" x1="684.499" y1="367.5" x2="274.999" y2="367.5" gradientUnits="userSpaceOnUse">
<stop stop-color="#F4F4F4" stop-opacity="0"/>
<stop offset="1" stop-color="#737373" stop-opacity="0.72"/>
</linearGradient>
<linearGradient id="paint2_linear_489_52" x1="907.499" y1="352.5" x2="497.999" y2="352.5" gradientUnits="userSpaceOnUse">
<stop stop-color="#F4F4F4" stop-opacity="0"/>
<stop offset="1" stop-color="#737373" stop-opacity="0.72"/>
</linearGradient>
</defs>
</svg>
