<svg width="411" height="411" viewBox="0 0 411 411" fill="none" xmlns="http://www.w3.org/2000/svg">
<path d="M5.28265 245.407L1 219.552L1.7952 194.606L3.76043 169.228L10.7808 145.236L24.0264 122.619L31.0014 101.001L43.0201 80.7007L59.9576 64.9673L81.8367 53.2894L94.2303 39.4417L117.734 35.3295L144.543 36.545L173.84 43.2246L204.637 55.2774L226.607 78.815L248.19 106.851L268.559 138.397L286.927 172.295L302.604 207.249L314.998 241.942L323.676 275.068L328.414 305.444L329.129 332.049L325.926 354.064L319.042 370.911L308.852 382.237M215.883 1.07952L213.475 5.08955L210.737 15.5406L207.761 32.3759L204.625 55.2546M204.625 55.2546H242.192L243.317 55.4023L278.351 60.1053L311.828 69.568L341.477 83.2339L366.367 100.535L367.821 120.267L364.288 140.045L383.816 165.491L397.402 191.777L404.74 217.996L405.774 243.294L400.674 266.889L390.563 291.687L374.444 315.02L352.69 336.047L325.914 354.007L294.947 368.207L260.822 378.079L224.721 383.225L187.926 383.429L151.757 378.681L117.507 369.184L86.3693 355.325L59.3783 337.649L37.3856 316.838L21.0047 293.664L15.8814 270.535L16.6198 244.851L23.3789 217.382L36.1019 189.028L54.4935 160.776L77.9857 133.66L105.806 108.68L136.966 86.7669L170.319 68.7388L204.625 55.2433L240.965 50.8697L275.806 51.5059L307.955 57.0381L336.343 67.1711L341.489 83.2339L342.534 99.7966L339.376 116.359L332.015 132.399L320.598 147.394M204.625 55.2546L167.001 60.0939L130.695 69.6476L97.0021 83.5179L67.103 101.16L41.9863 121.892L22.4247 144.929L8.92919 169.444L1.76113 194.583L6.0324 220.063L5.24857 245.384L15.8587 270.524L32.6485 294.107L55.2092 315.304L82.9159 333.31L114.905 347.441L150.098 357.12L187.279 361.959L225.107 361.755L262.22 356.506L297.288 346.442L329.095 331.969L356.586 313.669L378.897 292.244L395.414 268.49L405.751 243.249L409.761 217.371L408.716 192.448L401.31 167.399L387.587 143.044L367.81 120.21L342.511 99.7398L312.464 82.4047L278.657 68.8751L242.272 59.685L204.603 55.1978L168.081 64.4675L132.706 78.3379L99.7625 96.2864L70.4314 117.643L45.7237 141.601L26.4347 167.263L13.1096 193.708L6.0324 220.018L16.6084 244.794L33.3188 268.036L55.7772 288.915L83.3589 306.659L115.201 320.575L150.234 330.118L187.233 334.877L224.88 334.673L261.822 329.504L296.731 319.587L328.391 305.33L355.757 287.302L377.977 266.196L394.426 242.794L404.729 217.928L408.728 192.425L406.501 167.092L399.242 143.191L391.393 119.858L378.908 99.4899L378.249 98.1835L378.158 98.0358L366.355 79.0081L349.577 60.7528L334.377 47.2119L315.861 33.0575L303.967 26.5937L294.3 21.3455L280.907 16.3472L280.623 16.2222L270.331 12.3598L260.504 8.71334L238.637 3.55597L215.849 1L192.766 1.1136L170 3.8854L148.178 9.25861L138.375 13.0074L128.139 16.9606L127.844 17.0969L114.496 22.2316L104.874 27.582L93.0489 34.1594L74.6686 48.4955L59.5827 62.1955L42.9747 80.6212L31.3535 99.7852L31.2854 99.8988L30.6265 101.239L18.3465 121.732L10.7354 145.156L8.90645 169.387L13.0982 193.697L23.3562 217.314L39.5099 239.455L61.1845 259.334L87.7665 276.215L118.427 289.449L152.143 298.514L187.745 303.047L223.971 302.854L259.516 297.946M5.27131 245.407L10.6218 268.967L15.5974 280.804L21.016 293.687L31.6375 313.6L38.851 323.813L47.1778 335.604L61.5366 349.611L67.9777 355.359L80.5303 368.025L96.0138 378.227L103.75 383.327L125.334 393.017L130.457 395.323L159.777 403.525L190.709 407.614L222.165 407.444L253.041 403.002L282.259 394.482L308.829 382.202L316.52 377.011L331.878 366.639L344.295 353.848L352.678 336.07L356.597 313.714L355.757 287.382L350.043 257.88L339.523 226.198L324.483 193.447L305.41 160.844L282.997 129.605L258.085 100.921L231.628 75.85L204.614 55.2546L178.043 39.8052L152.847 29.9222L144.532 36.5336L137.977 44.0425L133.388 52.2216L130.923 60.855L97.5246 70.6472L67.989 84.6085L43.2473 102.159L24.0151 122.619L22.436 144.952L26.4574 167.331L36.1133 189.051L51.2219 209.374L71.4311 227.606L96.1614 243.067L124.641 255.177L155.926 263.469L188.937 267.616L222.517 267.434L255.483 262.947L286.666 254.325L314.998 241.92L339.535 226.209L359.528 207.783L374.41 187.313L383.816 165.513L387.598 143.112L385.792 120.812L366.378 100.558L360.108 81.4618L336.343 67.1938L327.334 52.0966L301.025 45.258L291.29 34.4888L264.514 35.9656L235.308 42.9292L204.648 55.2774L177.85 76.134L151.643 101.478L127.015 130.423L104.909 161.89L86.1648 194.708L71.4424 227.629L61.2299 259.437L55.8113 289.006L55.2433 315.361L59.401 337.683L67.9777 355.371L93.4465 372.126L122.8 385.258L155.051 394.255L189.096 398.742L223.733 398.549L257.721 393.676L289.858 384.327L319.042 370.877L344.306 353.848L350.679 348.032L364.879 333.889L374.444 315.043L378.931 292.301L377.999 266.287L371.513 237.796L359.54 207.772L342.386 177.271L320.598 147.394M320.598 147.394L294.936 119.267M320.598 147.394L305.433 160.844L286.95 172.272L265.719 181.269L242.431 187.506L217.86 190.755L192.845 190.88L168.24 187.892L144.873 181.894L123.539 173.113L104.92 161.867L89.5955 148.564L78.0084 133.683L70.4655 117.711L67.1257 101.183L68.0004 84.6085L72.976 68.4889L101.285 58.0719L133.399 52.2216L168.251 51.2446L204.637 55.2546L238.648 46.7234L271.149 43.3836L301.036 45.2353L307.966 57.0495L311.84 69.5794L312.498 82.4615L309.863 95.2981L303.967 107.703L294.936 119.267M294.936 119.267L266.332 93.9463L235.854 72.3512L204.648 55.2546L170.546 47.0528L138 44.0311L108.112 46.1781L101.296 58.0719L97.5473 70.6472L97.0248 83.5407L99.7966 96.3546L105.829 108.703L114.985 120.176L127.015 130.4L141.567 139.022L158.186 145.747L176.339 150.337L195.435 152.62L214.849 152.518L233.922 150.041L252.03 145.27L268.57 138.375L283.02 129.605L294.936 119.267ZM259.516 297.946L293.119 288.518L323.62 274.965L349.997 257.812L371.445 237.717L387.348 215.429L397.345 191.721L401.276 167.388L399.197 143.191L385.735 120.721L378.545 99.1832L366.321 79.0194L349.248 63.4678L334.343 47.2232L314.736 38.283L299.094 26.2984L280.827 16.3585L260.47 8.7247L248.633 11.1103L235.092 19.721L220.245 34.5116L204.557 55.1865L188.574 81.2005L172.886 111.724M259.516 297.946L261.777 329.504L262.174 356.472L260.754 378.022L257.63 393.596L252.973 402.923L246.998 405.956M259.516 297.946L255.427 262.867L249.633 225.561L242.351 187.438L233.854 149.973L224.482 114.598L214.599 82.6319L204.58 55.1865L194.799 33.137L185.586 17.0742L177.237 7.30472L169.989 3.90812M172.886 111.724L158.095 145.69L144.782 181.837L133.456 218.791L124.561 255.131L118.393 289.483L115.144 320.598L114.848 347.43L117.427 369.15L122.698 385.201L130.377 395.266L140.124 399.276L150.995 402.321L160.47 404.968L165.706 406.433L174.897 407.649L192.663 410L220.075 409.852L221.699 409.614L237.807 407.296L246.986 405.979L252.212 404.456L261.64 401.707L272.478 398.549L282.179 394.437L289.756 384.293L294.857 368.196L297.219 346.453L296.651 319.644L293.084 288.575L286.575 254.302L277.306 218.064L265.605 181.235L251.928 145.236L236.796 111.429L220.802 81.0756L204.546 55.2319L188.642 34.7047L173.636 20.0618L160.004 11.5874L144.043 17.7671L129.787 25.7304L109.68 27.2526L94.1508 39.3963L74.6232 48.541L59.8781 64.9332L49.2567 82.9613L43.1791 102.125L41.9409 121.88L45.6896 141.635L54.4367 160.765L68.0117 178.645L86.0853 194.651L108.135 208.204L133.467 218.814L161.265 226.073L190.573 229.696L220.37 229.537L249.633 225.607L277.34 218.064L302.547 207.204L324.438 193.424L342.329 177.248L355.711 159.243L364.243 140.033M172.886 111.724L185.268 114.803L198.275 116.337L211.487 116.268L224.471 114.61L236.819 111.406L248.122 106.772L258.039 100.864L266.252 93.8781L272.523 86.0512L276.681 77.6222L278.612 68.8637L278.283 60.0485L275.738 51.4491L271.069 43.3154L264.435 35.8747L256.051 29.3542L230.969 39.4872L204.569 55.1978M172.886 111.724L161.526 107.203L151.552 101.398L143.259 94.4916L136.898 86.7214L132.649 78.3379L130.627 69.6021L130.854 60.7869M220.109 409.864L222.119 407.399L223.664 398.504L224.664 383.202L225.073 361.755L224.846 334.707L223.971 302.899L222.472 267.4L220.381 229.526L217.791 190.721L214.792 152.484L211.498 116.291L208.056 83.4839L204.58 55.2092L183.019 36.9085L162.628 24.3445L144.066 17.7558L127.878 17.131L109.702 27.2413L93.0261 34.1821M391.358 119.892L378.874 99.524L360.051 81.405L349.259 63.4905L327.278 52.0284L314.748 38.3057L291.221 34.4207L278.998 24.992L264.662 17.1651L246.18 23.9355L225.925 36.6926L204.569 55.1978M204.569 55.1978L182.837 78.9513L161.537 107.203L141.487 138.954L123.459 173.045L108.135 208.17L96.0933 242.999L87.7438 276.226L83.3135 306.659L82.8704 333.276L86.3011 355.268L93.3556 372.047L103.67 383.259M204.569 55.1978L201.388 83.4952L198.286 116.325L195.378 152.552L192.777 190.812L190.585 229.651L188.892 267.547L187.756 303.058L187.211 334.877L187.256 361.925L187.881 383.361L189.04 398.652L190.675 407.524L192.709 409.966M238.625 3.57869L231.423 7.04344L223.176 16.8924L214.133 33.0461L204.58 55.1978L194.844 82.7341L185.291 114.803L176.282 150.268L168.172 187.824L161.276 226.027L155.869 263.401L152.143 298.526L150.2 330.118L150.075 357.086L151.711 378.624L154.994 394.164L159.743 403.434L165.741 406.399M235.797 72.2831L239.034 68.3525L241.204 64.104L242.26 59.6736L242.17 55.1978L240.931 50.8129L238.603 46.6552L235.263 42.8383L231.003 39.4758L225.959 36.6699L220.279 34.5002L214.145 33.0348L207.727 32.3077L201.217 32.3418L194.81 33.137L188.687 34.6706L183.03 36.8971L178.021 39.7484L173.795 43.145L170.489 46.996L168.206 51.1765L167.013 55.5727L166.967 60.0485L168.069 64.4675L170.284 68.6933L173.556 72.5898L177.793 76.0432L182.86 78.9399L188.608 81.1892L194.856 82.7227L201.41 83.4839L208.067 83.4498L214.611 82.6205L220.836 81.0301L226.561 78.7241L231.594 75.7705L235.797 72.2717M204.591 55.1751L201.217 32.3305L198.059 15.5292L195.208 5.10091L192.754 1.12496M364.208 139.999L339.285 116.302L309.772 95.2413L276.669 77.6222L241.159 64.104L204.546 55.1865L166.967 55.5727L165.843 55.7318L130.843 60.7755M315.793 33.0802L299.071 26.2984L278.964 24.9693L256.029 29.3428L246.157 23.9128L235.081 19.721L223.13 16.8811L210.657 15.4724L198.014 15.5292L185.552 17.0515L173.636 20.005L162.605 24.2991L152.779 29.8313L129.775 25.6736L117.643 35.2159L108.01 46.0872L81.7458 53.1871L72.8965 68.3866L49.2453 82.8931L30.5811 101.228L18.3011 121.721M331.81 366.537L343.579 355.109L346.714 352.065L350.588 347.93L364.788 333.787L372.99 321.904L380.078 311.624L390.484 291.608L395.357 268.445L394.358 242.783L387.326 215.406L374.33 187.211L355.677 159.175L331.924 132.308L303.876 107.612L272.512 86.0171L238.989 68.3185L204.546 55.1524L173.511 72.5557L143.248 94.4461L114.894 120.063L89.4932 148.462L67.989 178.566L51.131 209.26L39.4531 239.421L33.2506 267.991L32.5804 294.027L37.2947 316.736L47.0642 335.491L61.423 349.497L65.3308 353.576L68.5229 356.609L80.4167 367.9M294.334 21.425L280.941 16.4267L264.719 17.2105L248.701 11.1784L231.457 7.10024L213.475 5.07819L195.242 5.16906L177.271 7.36152L160.061 11.5987L148.19 9.32677L127.855 17.1651L114.508 22.2997" stroke="black" stroke-width="1.08501" stroke-linecap="round" stroke-linejoin="round"/>
</svg>
