<svg width="59" height="59" viewBox="0 0 59 59" fill="none" xmlns="http://www.w3.org/2000/svg">
<rect width="59" height="59" rx="8" fill="#EFD6FF"/>
<path fill-rule="evenodd" clip-rule="evenodd" d="M29 22.2917C26.9059 22.2917 25.2083 23.9893 25.2083 26.0833C25.2083 28.1774 26.9059 29.875 29 29.875C31.0941 29.875 32.7917 28.1774 32.7917 26.0833C32.7917 23.9893 31.0941 22.2917 29 22.2917ZM26.9583 26.0833C26.9583 24.9558 27.8724 24.0417 29 24.0417C30.1276 24.0417 31.0417 24.9558 31.0417 26.0833C31.0417 27.2109 30.1276 28.125 29 28.125C27.8724 28.125 26.9583 27.2109 26.9583 26.0833Z" fill="#A53CE5"/>
<path fill-rule="evenodd" clip-rule="evenodd" d="M29 17.625C24.3286 17.625 20.5417 21.4119 20.5417 26.0833C20.5417 27.7962 21.0508 29.3901 21.9259 30.722L18.9089 35.9477C18.7373 36.2448 18.7553 36.6149 18.9549 36.894C19.1544 37.1732 19.4987 37.3099 19.8354 37.2437L22.885 36.6442L23.8905 39.5849C24.0016 39.9096 24.2922 40.1394 24.6337 40.1727C24.9752 40.2059 25.3047 40.0365 25.4763 39.7393L28.486 34.5263C28.656 34.5365 28.8274 34.5417 29 34.5417C29.1726 34.5417 29.344 34.5365 29.514 34.5263L32.5238 39.7393C32.6955 40.0368 33.0254 40.2063 33.3673 40.1726C33.7091 40.139 33.9996 39.9084 34.1101 39.5831L35.1106 36.6365L38.1627 37.2434C38.4996 37.3103 38.8445 37.174 39.0446 36.8948C39.2447 36.6156 39.2629 36.2451 39.0911 35.9477L36.0741 30.722C36.9492 29.3901 37.4583 27.7961 37.4583 26.0833C37.4583 21.4119 33.6714 17.625 29 17.625ZM22.2917 26.0833C22.2917 22.3784 25.2951 19.375 29 19.375C32.7049 19.375 35.7083 22.3784 35.7083 26.0833C35.7083 29.7882 32.7049 32.7917 29 32.7917C25.2951 32.7917 22.2917 29.7882 22.2917 26.0833ZM26.6477 34.2103C25.3026 33.8216 24.0953 33.108 23.1164 32.1601L21.3871 35.1552L23.2969 34.7798C23.7263 34.6953 24.1521 34.9411 24.2937 35.3552L24.9234 37.1969L26.6477 34.2103ZM33.0738 37.192L31.3523 34.2103C32.6974 33.8216 33.9047 33.108 34.8836 32.1601L36.6101 35.1504L34.6993 34.7704C34.2687 34.6848 33.8413 34.9316 33.7001 35.3473L33.0738 37.192Z" fill="#A53CE5"/>
</svg>
