<svg width="59" height="59" viewBox="0 0 59 59" fill="none" xmlns="http://www.w3.org/2000/svg">
<rect width="59" height="59" rx="8" fill="#FFEFD6"/>
<path fill-rule="evenodd" clip-rule="evenodd" d="M24.25 23.631V22.4613C24.25 21.595 24.8837 20.8591 25.7404 20.7306L26.9603 20.5476C28.3125 20.3448 29.6875 20.3448 31.0397 20.5476L32.2596 20.7306C33.1163 20.8591 33.75 21.595 33.75 22.4613V23.631L35.464 23.7694C36.7764 23.8753 37.847 24.8635 38.0574 26.1632C38.5226 29.0357 38.5226 31.9644 38.0574 34.8369C37.847 36.1367 36.7764 37.1248 35.464 37.2307L33.5921 37.3818C30.5357 37.6285 27.4643 37.6285 24.4079 37.3818L22.536 37.2307C21.2236 37.1248 20.153 36.1367 19.9425 34.8369C19.4774 31.9644 19.4774 29.0357 19.9425 26.1632C20.153 24.8635 21.2236 23.8753 22.536 23.7694L24.25 23.631ZM27.1828 22.031C28.3875 21.8503 29.6125 21.8503 30.8172 22.031L32.0371 22.214C32.1595 22.2324 32.25 22.3375 32.25 22.4613V23.5259C30.0851 23.4024 27.9149 23.4024 25.75 23.5259V22.4613C25.75 22.3375 25.8405 22.2324 25.9629 22.214L27.1828 22.031ZM24.5286 25.1134C27.5047 24.8732 30.4953 24.8732 33.4714 25.1134L35.3433 25.2645C35.9675 25.3149 36.4766 25.7849 36.5767 26.403C36.6391 26.7879 36.6926 27.1739 36.7372 27.5607C31.8596 29.9625 26.1404 29.9625 21.2628 27.5607C21.3074 27.1739 21.3609 26.7879 21.4233 26.403C21.5234 25.7849 22.0325 25.3149 22.6566 25.2645L24.5286 25.1134ZM21.1289 29.1567C26.1283 31.4304 31.8717 31.4304 36.8711 29.1567C36.9664 30.9729 36.8683 32.7967 36.5767 34.5971C36.4766 35.2153 35.9675 35.6852 35.3433 35.7356L33.4714 35.8867C30.4953 36.1269 27.5047 36.1269 24.5286 35.8867L22.6566 35.7356C22.0325 35.6852 21.5234 35.2153 21.4233 34.5971C21.1317 32.7967 21.0336 30.9729 21.1289 29.1567Z" fill="#E1A448"/>
</svg>
