<svg width="59" height="59" viewBox="0 0 59 59" fill="none" xmlns="http://www.w3.org/2000/svg">
<rect width="59" height="59" rx="8" fill="#D6FFF0"/>
<path fill-rule="evenodd" clip-rule="evenodd" d="M26.9292 22.4703C25.658 22.3283 24.3421 22.3283 23.0708 22.4703C22.7619 22.5049 22.5183 22.7494 22.4836 23.0465C22.3318 24.3444 22.3318 25.6557 22.4836 26.9536C22.5183 27.2506 22.7619 27.4952 23.0708 27.5298C24.3421 27.6718 25.658 27.6718 26.9292 27.5298C27.2381 27.4952 27.4817 27.2506 27.5164 26.9536C27.6682 25.6557 27.6682 24.3444 27.5164 23.0465C27.4817 22.7494 27.2381 22.5049 26.9292 22.4703ZM22.9042 20.9796C24.2862 20.8252 25.7138 20.8252 27.0958 20.9796C28.0866 21.0904 28.8891 21.8703 29.0063 22.8722C29.1716 24.286 29.1716 25.7141 29.0063 27.1278C28.8891 28.1298 28.0866 28.9097 27.0958 29.0205C25.7138 29.1749 24.2862 29.1749 22.9042 29.0205C21.9134 28.9097 21.1109 28.1298 20.9938 27.1278C20.8284 25.7141 20.8284 24.286 20.9938 22.8722C21.1109 21.8703 21.9134 21.0904 22.9042 20.9796Z" fill="#5BE5B4"/>
<path fill-rule="evenodd" clip-rule="evenodd" d="M26.9292 32.4703C25.658 32.3283 24.3421 32.3283 23.0708 32.4703C22.7619 32.5049 22.5183 32.7494 22.4836 33.0465C22.3318 34.3444 22.3318 35.6557 22.4836 36.9536C22.5183 37.2506 22.7619 37.4952 23.0708 37.5298C24.3421 37.6718 25.658 37.6718 26.9292 37.5298C27.2381 37.4952 27.4817 37.2506 27.5164 36.9536C27.6682 35.6556 27.6682 34.3444 27.5164 33.0465C27.4817 32.7494 27.2381 32.5049 26.9292 32.4703ZM22.9042 30.9796C24.2862 30.8252 25.7138 30.8252 27.0958 30.9796C28.0866 31.0904 28.8891 31.8703 29.0063 32.8722C29.1716 34.286 29.1716 35.7141 29.0063 37.1278C28.8891 38.1298 28.0866 38.9097 27.0958 39.0205C25.7138 39.1749 24.2862 39.1749 22.9042 39.0205C21.9134 38.9097 21.1109 38.1298 20.9938 37.1278C20.8284 35.7141 20.8284 34.286 20.9938 32.8722C21.1109 31.8703 21.9134 31.0904 22.9042 30.9796Z" fill="#5BE5B4"/>
<path fill-rule="evenodd" clip-rule="evenodd" d="M36.9292 22.4703C35.658 22.3283 34.3421 22.3283 33.0708 22.4703C32.7619 22.5049 32.5183 22.7494 32.4836 23.0465C32.3318 24.3444 32.3318 25.6557 32.4836 26.9536C32.5183 27.2506 32.7619 27.4952 33.0708 27.5298C34.3421 27.6718 35.658 27.6718 36.9292 27.5298C37.2381 27.4952 37.4817 27.2506 37.5164 26.9536C37.6682 25.6557 37.6682 24.3444 37.5164 23.0465C37.4817 22.7494 37.2381 22.5049 36.9292 22.4703ZM32.9042 20.9796C34.2862 20.8252 35.7138 20.8252 37.0958 20.9796C38.0866 21.0904 38.8891 21.8703 39.0063 22.8722C39.1716 24.286 39.1716 25.7141 39.0063 27.1278C38.8891 28.1298 38.0866 28.9097 37.0958 29.0205C35.7138 29.1749 34.2862 29.1749 32.9042 29.0205C31.9134 28.9097 31.1109 28.1298 30.9938 27.1278C30.8284 25.7141 30.8284 24.286 30.9938 22.8722C31.1109 21.8703 31.9134 21.0904 32.9042 20.9796Z" fill="#5BE5B4"/>
<path fill-rule="evenodd" clip-rule="evenodd" d="M36.9292 32.4703C35.658 32.3283 34.3421 32.3283 33.0708 32.4703C32.7619 32.5049 32.5183 32.7494 32.4836 33.0465C32.3318 34.3444 32.3318 35.6557 32.4836 36.9536C32.5183 37.2506 32.7619 37.4952 33.0708 37.5298C34.3421 37.6718 35.658 37.6718 36.9292 37.5298C37.2381 37.4952 37.4817 37.2506 37.5164 36.9536C37.6682 35.6556 37.6682 34.3444 37.5164 33.0465C37.4817 32.7494 37.2381 32.5049 36.9292 32.4703ZM32.9042 30.9796C34.2862 30.8252 35.7138 30.8252 37.0958 30.9796C38.0866 31.0904 38.8891 31.8703 39.0063 32.8722C39.1716 34.286 39.1716 35.7141 39.0063 37.1278C38.8891 38.1298 38.0866 38.9097 37.0958 39.0205C35.7138 39.1749 34.2862 39.1749 32.9042 39.0205C31.9134 38.9097 31.1109 38.1298 30.9938 37.1278C30.8284 35.7141 30.8284 34.286 30.9938 32.8722C31.1109 31.8703 31.9134 31.0904 32.9042 30.9796Z" fill="#5BE5B4"/>
</svg>
