<svg width="59" height="59" viewBox="0 0 59 59" fill="none" xmlns="http://www.w3.org/2000/svg">
<rect width="59" height="59" rx="8" fill="#D6FFFF"/>
<path fill-rule="evenodd" clip-rule="evenodd" d="M24.5352 21.25C23.9501 21.25 23.4037 21.5424 23.0791 22.0293L19.4899 27.4131C19.2701 27.7427 19.2439 28.1648 19.421 28.5191C21.3851 32.4473 24.1147 35.9432 27.4492 38.8014L29.2 40.3021C29.6603 40.6967 30.3397 40.6967 30.8 40.3021L32.5508 38.8014C35.8853 35.9432 38.6149 32.4473 40.579 28.5191C40.7561 28.1648 40.7299 27.7427 40.5101 27.4131L36.9209 22.0293C36.5963 21.5424 36.0499 21.25 35.4648 21.25H24.5352ZM24.3272 22.8613C24.3735 22.7918 24.4516 22.75 24.5352 22.75H26.875L24.9599 27.3463C24.9158 27.4522 24.8825 27.5614 24.86 27.6722C24.1562 27.6199 23.453 27.5567 22.7506 27.4828L21.3449 27.3348L24.3272 22.8613ZM21.2787 28.8361C23.0721 32.1261 25.4402 35.0714 28.2732 37.5312L25.1477 29.1967C24.2954 29.1381 23.4439 29.064 22.5935 28.9745L21.2787 28.8361ZM26.7848 29.2902L30 37.864L33.2152 29.2902C31.0728 29.3876 28.9272 29.3876 26.7848 29.2902ZM34.8523 29.1967L31.7268 37.5312C34.5598 35.0714 36.9279 32.1261 38.7213 28.8361L37.4064 28.9745C36.5561 29.064 35.7046 29.1381 34.8523 29.1967ZM38.6551 27.3348L37.2494 27.4828C36.547 27.5567 35.8438 27.6199 35.14 27.6722C35.1175 27.5613 35.0842 27.4522 35.0401 27.3463L33.125 22.75H35.4648C35.5484 22.75 35.6265 22.7918 35.6728 22.8613L38.6551 27.3348ZM33.5917 27.7701C31.1988 27.8943 28.8012 27.8943 26.4083 27.7701L28.5 22.75H31.5L33.5917 27.7701Z" fill="#84E6FC"/>
</svg>
