<svg width="59" height="59" viewBox="0 0 59 59" fill="none" xmlns="http://www.w3.org/2000/svg">
<rect width="59" height="59" rx="8" fill="#FFFDD6"/>
<path fill-rule="evenodd" clip-rule="evenodd" d="M36.5833 28.125C35.0988 28.125 33.8166 29.1634 33.508 30.6155L33.4821 30.7373C33.4029 31.1103 33.3889 31.4942 33.4408 31.872L33.6193 33.1701C33.5526 33.1782 33.486 33.1866 33.4194 33.1952C32.393 33.3285 31.625 34.2027 31.625 35.2377V37.929C31.625 38.9639 32.393 39.8382 33.4194 39.9714C35.5199 40.2442 37.6468 40.2442 39.7473 39.9714C40.7736 39.8382 41.5417 38.9639 41.5417 37.929V35.2377C41.5417 34.2027 40.7736 33.3285 39.7473 33.1952C39.6807 33.1866 39.614 33.1782 39.5473 33.1701L39.7258 31.872C39.7778 31.4942 39.7638 31.1103 39.6845 30.7373L39.6587 30.6155C39.3501 29.1634 38.0679 28.125 36.5833 28.125ZM37.8014 33.0209L37.9921 31.6336C38.0165 31.4563 38.01 31.2761 37.9728 31.101L37.9469 30.9792C37.8101 30.3354 37.2415 29.875 36.5833 29.875C35.9251 29.875 35.3566 30.3354 35.2198 30.9792L35.1939 31.101C35.1567 31.2761 35.1501 31.4563 35.1745 31.6336L35.3653 33.0209C36.1768 32.9806 36.9899 32.9806 37.8014 33.0209ZM33.6447 34.9307C35.5956 34.6773 37.5711 34.6773 39.5219 34.9307C39.6762 34.9507 39.7917 35.0821 39.7917 35.2377V37.929C39.7917 38.0846 39.6762 38.216 39.5219 38.236C37.5711 38.4894 35.5956 38.4894 33.6447 38.236C33.4905 38.216 33.375 38.0846 33.375 37.929V35.2377C33.375 35.0821 33.4905 34.9507 33.6447 34.9307Z" fill="#E1DA35"/>
<path d="M29.875 36.4262C29.875 36.2315 29.716 36.0743 29.5213 36.0755C27.3706 36.089 25.2195 36.019 23.0729 35.8654L21.3066 35.739C20.7075 35.6962 20.2134 35.2533 20.1055 34.6625C19.6276 32.0469 19.5458 29.3743 19.8628 26.7343L20.1807 24.087C20.2637 23.3955 20.8504 22.875 21.547 22.875H24.2204C24.7338 22.875 25.15 23.2912 25.15 23.8046C25.15 24.4871 25.7033 25.0405 26.3859 25.0405H36.5509C37.215 25.0405 37.7806 25.523 37.8853 26.1787L37.9008 26.2762C37.9293 26.4546 38.0589 26.5986 38.229 26.6594C38.6391 26.8059 39.0255 27.0059 39.3788 27.2519C39.5546 27.3743 39.8123 27.2369 39.7839 27.0245C39.7548 26.8065 39.7229 26.5887 39.6882 26.3713L39.6134 25.9029C39.3732 24.3979 38.075 23.2905 36.5509 23.2905L26.8507 23.2905C26.611 22.0565 25.5245 21.125 24.2204 21.125H21.547C19.9646 21.125 18.6318 22.3073 18.4432 23.8784L18.1253 26.5257C17.7873 29.3398 17.8745 32.1888 18.384 34.977C18.6354 36.3532 19.7863 37.3847 21.1817 37.4846L22.9481 37.6109C25.1387 37.7676 27.3338 37.8392 29.5286 37.8255C29.7205 37.8243 29.875 37.6681 29.875 37.4762V36.4262Z" fill="#E1DA35"/>
</svg>
