<svg width="59" height="59" viewBox="0 0 59 59" fill="none" xmlns="http://www.w3.org/2000/svg">
<rect width="59" height="59" rx="8" fill="#D6F0FF"/>
<path fill-rule="evenodd" clip-rule="evenodd" d="M28.5468 18.8524C28.8309 18.7715 29.1305 18.7715 29.4146 18.8521C30.0183 19.0234 30.6277 19.1823 31.2391 19.3418C34.11 20.0906 37.0258 20.851 39.6199 22.9639L40.8145 23.9369C41.299 24.3315 41.5414 24.9157 41.5417 25.5V33.6667C41.5417 34.1499 41.1499 34.5417 40.6667 34.5417C40.1834 34.5417 39.7917 34.1499 39.7917 33.6667V27.8995L39.6016 28.0546C38.7027 28.7881 37.7649 29.3577 36.8036 29.82C36.8496 29.9263 36.875 30.0435 36.875 30.1667V35.1763C36.875 36.4984 36.0639 37.6852 34.832 38.1655L30.1654 39.9848C29.4159 40.277 28.5841 40.277 27.8346 39.9848L23.168 38.1655C21.9361 37.6852 21.125 36.4984 21.125 35.1763V30.1667C21.125 30.0404 21.1517 29.9204 21.1999 29.812C20.2311 29.3469 19.286 28.774 18.3801 28.0361L17.1855 27.0632C16.2164 26.2738 16.2159 24.7264 17.1842 23.9363L18.3984 22.9455C20.9738 20.8439 23.8689 20.088 26.7186 19.3439C27.3313 19.184 27.9419 19.0245 28.5468 18.8524ZM39.7917 25.5007C39.7916 25.3956 39.7492 25.3262 39.7093 25.2938L38.5147 24.3208C36 22.5834 33.7592 21.8171 30.9132 21.0692C30.2874 20.9048 29.6439 20.7357 28.9813 20.5482C28.3157 20.737 27.6699 20.9069 27.042 21.0721C24.2188 21.8148 21.7588 22.462 19.5048 24.3013L18.2906 25.2922C18.2507 25.3247 18.2083 25.3942 18.2083 25.4993C18.2084 25.6044 18.2508 25.6738 18.2907 25.7063L19.4853 26.6793C21.7583 28.5306 24.2408 29.183 27.0868 29.9308C27.7126 30.0953 28.3561 30.2644 29.0187 30.4518C29.6842 30.263 30.33 30.0931 30.9579 29.928C33.7811 29.1852 36.2412 28.538 38.4952 26.6987L39.7094 25.7079C39.7493 25.6754 39.7916 25.6056 39.7917 25.5007ZM31.2814 31.6561C32.5645 31.3211 33.8568 30.9837 35.125 30.5221V35.1763C35.125 35.7773 34.7563 36.3167 34.1964 36.535L29.5297 38.3544C29.1891 38.4872 28.8109 38.4872 28.4703 38.3544L23.8036 36.535C23.2437 36.3167 22.875 35.7773 22.875 35.1763V30.5122C24.1569 30.9791 25.4635 31.3199 26.7609 31.6582C27.3723 31.8177 27.9817 31.9766 28.5854 32.148C28.8695 32.2286 29.1691 32.2285 29.4532 32.1477C30.058 31.9755 30.6687 31.8161 31.2814 31.6561Z" fill="#3BA7E3"/>
</svg>
