<svg width="59" height="59" viewBox="0 0 59 59" fill="none" xmlns="http://www.w3.org/2000/svg">
<rect width="59" height="59" rx="8" fill="#D9FFD6"/>
<path d="M33.375 32.1667C33.375 31.6834 32.9833 31.2917 32.5 31.2917H25.5C25.0168 31.2917 24.625 31.6834 24.625 32.1667C24.625 32.6499 25.0168 33.0417 25.5 33.0417H32.5C32.9833 33.0417 33.375 32.6499 33.375 32.1667Z" fill="#65D55B"/>
<path d="M33.375 36.8333C33.375 36.3501 32.9833 35.9583 32.5 35.9583H25.5C25.0168 35.9583 24.625 36.3501 24.625 36.8333C24.625 37.3166 25.0168 37.7083 25.5 37.7083H32.5C32.9833 37.7083 33.375 37.3166 33.375 36.8333Z" fill="#65D55B"/>
<path fill-rule="evenodd" clip-rule="evenodd" d="M23.1667 19.625C21.3948 19.625 19.9583 21.0614 19.9583 22.8333V39.1667C19.9583 40.9386 21.3948 42.375 23.1667 42.375H34.8333C36.6053 42.375 38.0417 40.9386 38.0417 39.1667V26.2956C38.0417 25.8514 37.8968 25.4193 37.629 25.0648L34.1316 20.4359C33.7457 19.9252 33.1427 19.625 32.5026 19.625H23.1667ZM21.7083 22.8333C21.7083 22.0279 22.3613 21.375 23.1667 21.375H31.625V26.5049C31.625 26.9881 32.0168 27.3799 32.5 27.3799H36.2917V39.1667C36.2917 39.9721 35.6388 40.625 34.8333 40.625H23.1667C22.3613 40.625 21.7083 39.9721 21.7083 39.1667V22.8333Z" fill="#65D55B"/>
</svg>
