<svg width="59" height="59" viewBox="0 0 59 59" fill="none" xmlns="http://www.w3.org/2000/svg">
<rect width="59" height="59" rx="8" fill="#FFEFD6"/>
<path fill-rule="evenodd" clip-rule="evenodd" d="M29 20.375C24.9446 20.375 21.7083 23.5451 21.7083 27.3936C21.7083 29.7323 22.6661 31.7492 24.3746 33.0054C24.7511 33.2822 25.0732 33.6951 25.1966 34.2189C25.2979 34.6488 25.4138 35.1726 25.5285 35.7278H32.4715C32.5862 35.1726 32.7021 34.6488 32.8034 34.2189C32.9267 33.6951 33.2489 33.2822 33.6254 33.0054C35.3339 31.7492 36.2917 29.7323 36.2917 27.3936C36.2917 23.5451 33.0554 20.375 29 20.375ZM32.1368 37.4778H25.8632C25.992 38.2216 26.093 38.9261 26.1236 39.4318C26.1558 39.9643 26.5538 40.4415 27.1406 40.5683L27.3692 40.6177C28.4431 40.8497 29.5569 40.8497 30.6308 40.6177L30.8594 40.5683C31.4462 40.4415 31.8442 39.9643 31.8764 39.4318C31.907 38.9261 32.008 38.2216 32.1368 37.4778ZM19.9583 27.3936C19.9583 22.523 24.0347 18.625 29 18.625C33.9653 18.625 38.0417 22.523 38.0417 27.3936C38.0417 30.2214 36.8708 32.7913 34.6621 34.4153C34.5613 34.4894 34.5192 34.5673 34.5068 34.6201C34.3686 35.2065 34.2004 35.9826 34.047 36.7701C33.8338 37.8647 33.6602 38.9264 33.6232 39.5375C33.5414 40.8887 32.5474 41.994 31.229 42.2788L31.0003 42.3282C29.6829 42.6128 28.3171 42.6128 26.9996 42.3282L26.771 42.2788C25.4526 41.994 24.4586 40.8887 24.3768 39.5375C24.3398 38.9264 24.1662 37.8647 23.953 36.7701C23.7996 35.9826 23.6313 35.2065 23.4932 34.6201C23.4808 34.5673 23.4387 34.4894 23.3379 34.4153C21.1292 32.7913 19.9583 30.2214 19.9583 27.3936Z" fill="#D09334"/>
</svg>
