<svg width="59" height="59" viewBox="0 0 59 59" fill="none" xmlns="http://www.w3.org/2000/svg">
<rect width="59" height="59" rx="8" fill="#FFD6F1"/>
<path fill-rule="evenodd" clip-rule="evenodd" d="M28.6023 38.636C28.7302 38.7128 28.8671 38.7468 29 38.7451C29.1329 38.7468 29.2698 38.7128 29.3977 38.636L30.533 37.9549C32.7595 36.619 35.4825 36.4008 37.8933 37.3651C38.7826 37.7208 39.75 37.0659 39.75 36.1081V24.4492C39.75 23.8712 39.3981 23.3515 38.8615 23.1369C35.7564 21.8948 32.2492 22.1759 29.3815 23.8965L29 24.1254L28.6185 23.8965C25.7508 22.1759 22.2436 21.8948 19.1385 23.1369C18.6019 23.3515 18.25 23.8712 18.25 24.4492V36.1081C18.25 37.0659 19.2174 37.7208 20.1067 37.3651C22.5175 36.4008 25.2405 36.619 27.467 37.9549L28.6023 38.636ZM19.75 24.508V35.8948C22.5458 34.8468 25.6718 35.1285 28.2388 36.6686L28.25 36.6754V25.4247L27.8467 25.1827C25.3977 23.7133 22.4063 23.465 19.75 24.508ZM29.7612 36.6686L29.75 36.6754V25.4247L30.1533 25.1827C32.6023 23.7133 35.5937 23.465 38.25 24.508V35.8948C35.4542 34.8468 32.3282 35.1285 29.7612 36.6686Z" fill="#D534CE"/>
<path d="M26.2752 39.0423C24.2513 37.8617 21.7487 37.8617 19.7248 39.0423L19.6221 39.1022C19.2643 39.3109 19.1435 39.7701 19.3522 40.1279C19.5609 40.4857 20.0201 40.6066 20.3779 40.3979L20.4806 40.3379C22.0375 39.4298 23.9625 39.4298 25.5194 40.3379L26.6066 40.9722C28.0856 41.8349 29.9144 41.8349 31.3934 40.9722L32.4806 40.3379C34.0375 39.4298 35.9625 39.4298 37.5194 40.3379L37.6221 40.3979C37.9799 40.6066 38.4391 40.4857 38.6478 40.1279C38.8565 39.7701 38.7357 39.3109 38.3779 39.1022L38.2752 39.0423C36.2513 37.8617 33.7487 37.8617 31.7248 39.0423L30.6376 39.6765C29.6257 40.2668 28.3743 40.2668 27.3624 39.6765L26.2752 39.0423Z" fill="#D534CE"/>
</svg>
