<svg width="59" height="59" viewBox="0 0 59 59" fill="none" xmlns="http://www.w3.org/2000/svg">
<rect width="59" height="59" rx="8" fill="#FFDDD6"/>
<path d="M24.3333 28.0834C23.5279 28.0834 22.875 28.7363 22.875 29.5417C22.875 30.3471 23.5279 31 24.3333 31C25.1387 31 25.7917 30.3471 25.7917 29.5417C25.7917 28.7363 25.1387 28.0834 24.3333 28.0834Z" fill="#D73A3A"/>
<path d="M29 28.0834C28.1946 28.0834 27.5417 28.7363 27.5417 29.5417C27.5417 30.3471 28.1946 31 29 31C29.8054 31 30.4583 30.3471 30.4583 29.5417C30.4583 28.7363 29.8054 28.0834 29 28.0834Z" fill="#D73A3A"/>
<path d="M32.2083 29.5417C32.2083 28.7363 32.8612 28.0834 33.6667 28.0834C34.4721 28.0834 35.125 28.7363 35.125 29.5417C35.125 30.3471 34.4721 31 33.6667 31C32.8612 31 32.2083 30.3471 32.2083 29.5417Z" fill="#D73A3A"/>
<path fill-rule="evenodd" clip-rule="evenodd" d="M33.7842 22.3583C30.641 22.0902 27.4813 22.0747 24.3356 22.3118L24.1102 22.3288C21.1103 22.5549 18.7917 25.0548 18.7917 28.0632V38C18.7917 38.3079 18.9534 38.5931 19.2177 38.7511C19.4819 38.909 19.8097 38.9165 20.0809 38.7708L24.6435 36.3188C24.8557 36.2047 25.0929 36.145 25.3338 36.145H35.8063C37.1271 36.145 38.259 35.2008 38.4957 33.9014C38.9755 31.2679 39.0134 28.573 38.6079 25.9271L38.4883 25.1474C38.2708 23.7278 37.1095 22.6419 35.6785 22.5199L33.7842 22.3583ZM24.4671 24.0568C27.5195 23.8268 30.5855 23.8419 33.6355 24.102L35.5298 24.2635C36.1556 24.3169 36.6634 24.7918 36.7586 25.4125L36.8781 26.1922C37.2542 28.6461 37.219 31.1454 36.774 33.5877C36.6889 34.0553 36.2816 34.395 35.8063 34.395H25.3338C24.8038 34.395 24.282 34.5264 23.815 34.7773L20.5417 36.5365V28.0632C20.5417 25.9703 22.1547 24.2311 24.2417 24.0738L24.4671 24.0568Z" fill="#D73A3A"/>
</svg>
